<svg xmlns="http://www.w3.org/2000/svg" version="1.1" xmlns:xlink="http://www.w3.org/1999/xlink" xmlns:svgjs="http://svgjs.dev/svgjs" width="1500" height="1500" viewBox="0 0 1500 1500"><rect width="1500" height="1500" fill="#000000"></rect><g transform="matrix(0.6666666666666666,0,0,0.6666666666666666,249.39393939393938,566.6241655094342)"><svg viewBox="0 0 396 145" data-background-color="#000000" preserveAspectRatio="xMidYMid meet" height="549" width="1500" xmlns="http://www.w3.org/2000/svg" xmlns:xlink="http://www.w3.org/1999/xlink"><g id="tight-bounds" transform="matrix(1,0,0,1,0.2400000000000091,0.1488961779564164)"><svg viewBox="0 0 395.52 144.70220764408717" height="144.70220764408717" width="395.52"><g><svg viewBox="0 0 395.52 144.70220764408717" height="144.70220764408717" width="395.52"><g transform="matrix(1,0,0,1,0,89.43176948870621)"><svg viewBox="0 0 395.52 55.27043815538096" height="55.27043815538096" width="395.52"><g id="textblocktransform"><svg viewBox="0 0 395.52 55.27043815538096" height="55.27043815538096" width="395.52" id="textblock"><g><svg viewBox="0 0 395.52 55.27043815538096" height="55.27043815538096" width="395.52"><g transform="matrix(1,0,0,1,0,0)"><svg width="395.52" viewBox="2 -36.25 262.36893280568097 37.016666666665" height="55.27043815538096" data-palette-color="url(#bff20f29-7ef3-402d-b927-55590ad42489)"><g class="wordmark-text-0" data-fill-palette-color="primary" id="text-0"></g></svg></g></svg></g></svg></g></svg></g><g transform="matrix(1,0,0,1,150.27345366118772,0)"><svg viewBox="0 0 94.97309267762456 76.38374553073649" height="76.38374553073649" width="94.97309267762456"><g><svg xmlns="http://www.w3.org/2000/svg" xmlns:xlink="http://www.w3.org/1999/xlink" version="1.1" x="0" y="0" viewBox="0 9.786 100.00034525290005 80.42699999999999" enable-background="new 0 0 100 100" xml:space="preserve" id="icon-0" width="94.97309267762456" height="76.38374553073649" class="icon-icon-0" data-fill-palette-color="accent"></svg></g></svg></g><g></g></svg></g><defs></defs><mask id="f332c1d5-4751-4e54-899f-a755d171e560"><g id="SvgjsG3274"><svg viewBox="0 0 395.52 144.70220764408717" height="144.70220764408717" width="395.52"><g><svg viewBox="0 0 395.52 144.70220764408717" height="144.70220764408717" width="395.52"><g transform="matrix(1,0,0,1,0,89.43176948870621)"><svg viewBox="0 0 395.52 55.27043815538096" height="55.27043815538096" width="395.52"><g id="SvgjsG3273"><svg viewBox="0 0 395.52 55.27043815538096" height="55.27043815538096" width="395.52" id="SvgjsSvg3272"><g><svg viewBox="0 0 395.52 55.27043815538096" height="55.27043815538096" width="395.52"><g transform="matrix(1,0,0,1,0,0)"><svg width="395.52" viewBox="2 -36.25 262.36893280568097 37.016666666665" height="55.27043815538096" data-palette-color="url(#bff20f29-7ef3-402d-b927-55590ad42489)"><g class="wordmark-text-0" data-fill-palette-color="primary" id="SvgjsG3271"><path d="M9.6-4.25Q9.6-2.65 10.03-1.93 10.45-1.2 11.68-0.9 12.9-0.6 15.55-0.6L15.55-0.6Q15.7-0.6 15.7-0.3 15.7 0 15.55 0L15.55 0Q13.5 0 12.35-0.05L12.35-0.05 8-0.1 4.65-0.05Q3.7 0 2.1 0L2.1 0Q2 0 2-0.3 2-0.6 2.1-0.6L2.1-0.6Q4-0.6 4.88-0.85 5.75-1.1 6.05-1.83 6.35-2.55 6.35-4.05L6.35-4.05 6.35-27.2Q6.35-28.7 6.05-29.4 5.75-30.1 4.88-30.38 4-30.65 2.1-30.65L2.1-30.65Q2-30.65 2-30.95 2-31.25 2.1-31.25L2.1-31.25 4.6-31.2Q6.7-31.1 7.95-31.1L7.95-31.1Q9.2-31.1 10.75-31.25L10.75-31.25Q11.35-31.25 12.65-31.33 13.95-31.4 14.9-31.4L14.9-31.4Q19.5-31.4 22.28-29.35 25.05-27.3 25.05-23.1L25.05-23.1Q25.05-19.8 23.43-17.55 21.8-15.3 19.25-14.2 16.7-13.1 14-13.1L14-13.1Q12.55-13.1 11.6-13.35L11.6-13.35Q11.45-13.35 11.45-13.6L11.45-13.6Q11.45-13.75 11.53-13.9 11.6-14.05 11.7-14L11.7-14Q12.5-13.8 13.5-13.8L13.5-13.8Q16.8-13.8 19.07-15.95 21.35-18.1 21.35-22.15L21.35-22.15Q21.35-26.1 19.2-28.38 17.05-30.65 13.7-30.65L13.7-30.65Q11.9-30.65 11.1-30.45 10.3-30.25 9.95-29.53 9.6-28.8 9.6-27.1L9.6-27.1 9.6-4.25ZM38.7 0.65Q35.8 0.65 33.57-0.78 31.35-2.2 30.15-4.63 28.95-7.05 28.95-9.9L28.95-9.9Q28.95-13.15 30.52-15.43 32.1-17.7 34.57-18.82 37.05-19.95 39.6-19.95L39.6-19.95Q42.55-19.95 44.75-18.5 46.95-17.05 48.12-14.68 49.3-12.3 49.3-9.65L49.3-9.65Q49.3-6.55 47.85-4.23 46.4-1.9 43.97-0.63 41.55 0.65 38.7 0.65L38.7 0.65ZM40.15-0.3Q42.9-0.3 44.4-2.25 45.9-4.2 45.9-8.25L45.9-8.25Q45.9-11.35 44.87-13.8 43.85-16.25 42.05-17.63 40.25-19 37.95-19L37.95-19Q35.25-19 33.77-17.05 32.3-15.1 32.3-11.45L32.3-11.45Q32.3-8.4 33.3-5.85 34.3-3.3 36.1-1.8 37.9-0.3 40.15-0.3L40.15-0.3ZM58.05-14.1Q60.7-17.4 62.15-18.57 63.6-19.75 64.84-19.75L64.84-19.75Q65.95-19.75 66.95-19.15 67.95-18.55 67.95-17.7L67.95-17.7Q67.95-17.05 67.5-16.6 67.05-16.15 66.3-16.15L66.3-16.15Q65.84-16.15 65.52-16.32 65.2-16.5 64.75-16.85L64.75-16.85Q64.3-17.25 63.9-17.45 63.5-17.65 62.95-17.65L62.95-17.65Q62.2-17.65 61.3-16.9 60.4-16.15 58.25-13.55L58.25-13.55 58.05-14.1ZM53.35 0Q53.2 0 53.2-0.3 53.2-0.6 53.35-0.6L53.35-0.6Q54.7-0.6 55.35-0.88 56-1.15 56.22-1.85 56.45-2.55 56.45-4.05L56.45-4.05 56.45-13.95Q56.45-15.65 56.05-16.4 55.65-17.15 54.7-17.15L54.7-17.15Q53.9-17.15 52-16.4L52-16.4 51.9-16.4Q51.7-16.4 51.62-16.63 51.55-16.85 51.75-16.95L51.75-16.95 57.55-19.7Q57.65-19.75 57.85-19.75L57.85-19.75Q58.3-19.75 58.8-18.6 59.3-17.45 59.3-15.65L59.3-15.65 59.3-4.05Q59.3-2.55 59.67-1.85 60.05-1.15 61.05-0.88 62.05-0.6 64.15-0.6L64.15-0.6Q64.34-0.6 64.34-0.3 64.34 0 64.15 0L64.15 0Q62.55 0 61.6-0.05L61.6-0.05 57.9-0.1 55.15-0.05Q54.5 0 53.35 0L53.35 0ZM78.69 0.6Q76.59 0.6 75.24-0.35 73.89-1.3 73.89-3.5L73.89-3.5 73.89-15.25Q73.89-16.55 73.72-17.1 73.54-17.65 73.04-17.82 72.54-18 71.34-18L71.34-18Q71.14-18 71.14-18.32 71.14-18.65 71.34-18.65L71.34-18.65Q73.34-18.7 74.59-19.73 75.84-20.75 76.04-22.45L76.04-22.45Q76.04-22.6 76.44-22.6L76.44-22.6Q76.79-22.6 76.79-22.45L76.79-22.45 76.79-5.2Q76.79-1.15 80.74-1.15L80.74-1.15Q83.04-1.15 84.74-2.55L84.74-2.55 84.84-2.6Q85.04-2.6 85.14-2.38 85.24-2.15 85.09-2.05L85.09-2.05Q83.24-0.6 81.77 0 80.29 0.6 78.69 0.6L78.69 0.6ZM83.54-16.85Q80.34-17.65 75.94-17.65L75.94-17.65 75.94-18.75Q79.09-18.75 83.74-19.25L83.74-19.25Q83.84-19.25 83.97-18.88 84.09-18.5 84.09-18.05L84.09-18.05Q84.09-17.65 83.92-17.23 83.74-16.8 83.54-16.85L83.54-16.85ZM101.89 0.3Q101.69 0.4 101.49 0.4L101.49 0.4Q100.74 0.4 100.19-0.75 99.64-1.9 99.64-3.8L99.64-3.8 99.64-13.25Q99.64-18.85 96.49-18.85L96.49-18.85Q94.79-18.85 93.92-17.73 93.04-16.6 92.74-15.15L92.74-15.15Q92.54-14.2 92.17-13.65 91.79-13.1 90.84-13.1L90.84-13.1Q90.04-13.1 89.62-13.55 89.19-14 89.19-14.6L89.19-14.6Q89.19-15.8 90.74-17 92.29-18.2 94.44-19 96.59-19.8 98.29-19.8L98.29-19.8Q100.34-19.8 101.39-18.5 102.44-17.2 102.44-14.75L102.44-14.75 102.44-5.4Q102.44-3.65 102.89-2.85 103.34-2.05 104.34-2.05L104.34-2.05Q105.34-2.05 106.84-2.7L106.84-2.7 106.94-2.7Q107.14-2.7 107.19-2.48 107.24-2.25 107.04-2.15L107.04-2.15 101.89 0.3ZM92.89 0.35Q91.04 0.35 90.02-0.63 88.99-1.6 88.99-3.1L88.99-3.1Q88.99-4.6 90.19-5.7 91.39-6.8 94.14-7.8L94.14-7.8 100.14-10.05 100.29-9.4 94.99-7.35Q93.59-6.8 92.97-6.08 92.34-5.35 92.34-4.35L92.34-4.35Q92.34-3.15 93.12-2.33 93.89-1.5 95.14-1.5L95.14-1.5Q96.14-1.5 97.54-2.3L97.54-2.3 100.69-4.2 100.79-3.55 97.09-1.15Q95.84-0.35 94.89 0 93.94 0.35 92.89 0.35L92.89 0.35ZM109.14 0Q108.99 0 108.99-0.3 108.99-0.6 109.14-0.6L109.14-0.6Q110.49-0.6 111.14-0.88 111.79-1.15 112.04-1.88 112.29-2.6 112.29-4.05L112.29-4.05 112.29-29.9Q112.29-31.7 111.94-32.5 111.59-33.3 110.69-33.3L110.69-33.3Q109.94-33.3 108.39-32.6L108.39-32.6 108.29-32.6Q108.14-32.6 108.06-32.85 107.99-33.1 108.14-33.15L108.14-33.15 114.54-36.2Q114.64-36.25 114.79-36.25L114.79-36.25Q114.94-36.25 115.09-36.13 115.24-36 115.24-35.85L115.24-35.85 115.24-4.05Q115.24-2.6 115.46-1.9 115.69-1.2 116.34-0.9 116.99-0.6 118.34-0.6L118.34-0.6Q118.49-0.6 118.49-0.3 118.49 0 118.34 0L118.34 0Q117.24 0 116.54-0.05L116.54-0.05 113.74-0.1 111.04-0.05Q110.34 0 109.14 0L109.14 0Z" fill="white"></path><path d="M139.79 0.65Q137.69 0.65 135.91-0.55 134.14-1.75 133.06-3.93 131.99-6.1 131.99-8.9L131.99-8.9Q131.99-12.45 133.74-14.95 135.49-17.45 138.14-18.7 140.79-19.95 143.39-19.95L143.39-19.95Q146.84-19.95 149.49-17.7L149.49-17.7 148.94-14.35Q147.59-16.55 145.99-17.75 144.39-18.95 142.04-18.95L142.04-18.95Q138.89-18.95 137.06-16.73 135.24-14.5 135.24-10.4L135.24-10.4Q135.24-7.65 136.09-5.55 136.94-3.45 138.41-2.3 139.89-1.15 141.74-1.15L141.74-1.15Q143.79-1.15 145.49-2.25 147.19-3.35 149.04-5.4L149.04-5.4 149.44-5.05Q147.14-2.45 144.94-0.9 142.74 0.65 139.79 0.65L139.79 0.65ZM150.99-5.5Q150.99-3.7 151.41-2.9 151.84-2.1 152.79-2.1L152.79-2.1Q154.24-2.1 155.39-2.8L155.39-2.8 155.49-2.85Q155.69-2.85 155.76-2.6 155.84-2.35 155.69-2.25L155.69-2.25 150.19 0.35Q149.99 0.45 149.79 0.45L149.79 0.45Q149.14 0.45 148.66-0.75 148.19-1.95 148.19-4.05L148.19-4.05 148.19-29.85Q148.19-31.65 147.81-32.45 147.44-33.25 146.54-33.25L146.54-33.25Q145.89-33.25 144.24-32.55L144.24-32.55 144.14-32.55Q143.94-32.55 143.86-32.77 143.79-33 143.94-33.1L143.94-33.1 150.29-36.2Q150.39-36.25 150.54-36.25L150.54-36.25Q150.69-36.25 150.84-36.13 150.99-36 150.99-35.85L150.99-35.85 150.99-5.5ZM166.74 0.6Q163.83 0.6 161.79-0.75 159.74-2.1 158.66-4.3 157.58-6.5 157.58-9L157.58-9Q157.58-11.95 158.99-14.43 160.39-16.9 162.81-18.32 165.24-19.75 168.14-19.75L168.14-19.75Q170.94-19.75 172.44-18.25 173.94-16.75 173.94-14.05L173.94-14.05Q173.94-13.35 173.81-13.05 173.69-12.75 173.33-12.75L173.33-12.75 170.54-12.75 170.58-13.65Q170.58-16.15 169.49-17.45 168.39-18.75 166.49-18.75L166.49-18.75Q163.83-18.75 162.36-16.65 160.89-14.55 160.89-10.9L160.89-10.9Q160.89-6.55 162.94-3.85 164.99-1.15 168.69-1.15L168.69-1.15Q170.19-1.15 171.26-1.55 172.33-1.95 173.69-2.8L173.69-2.8 173.74-2.8Q173.89-2.8 174.01-2.63 174.14-2.45 174.04-2.3L174.04-2.3Q170.64 0.6 166.74 0.6L166.74 0.6ZM159.99-12.7L159.94-13.35 171.29-13.55 171.29-12.75 159.99-12.7Z" fill="black"></path><path d="M191.783-5.45L191.783-30.1 192.933-30 192.933-5.45Q192.933-2.85 193.853-1.73 194.783-0.6 196.833-0.6L196.833-0.6Q196.983-0.6 196.983-0.3 196.983 0 196.833 0L196.833 0Q195.583 0 194.933-0.05L194.933-0.05 192.433-0.1 189.883-0.05Q189.183 0 187.833 0L187.833 0Q187.733 0 187.733-0.3 187.733-0.6 187.833-0.6L187.833-0.6Q189.983-0.6 190.883-1.73 191.783-2.85 191.783-5.45L191.783-5.45ZM216.983 0.6Q216.983 0.7 216.733 0.75 216.483 0.8 216.383 0.7L216.383 0.7 193.383-27.15Q191.783-29.1 190.453-29.88 189.133-30.65 187.833-30.65L187.833-30.65Q187.683-30.65 187.683-30.95 187.683-31.25 187.833-31.25L187.833-31.25 189.683-31.2Q190.283-31.15 191.333-31.15L191.333-31.15Q192.433-31.15 193.133-31.2 193.833-31.25 194.233-31.25L194.233-31.25Q194.583-31.25 194.803-31.08 195.033-30.9 195.333-30.35L195.333-30.35Q195.933-29.45 196.583-28.65L196.583-28.65 216.583-4.1 216.983 0.6ZM216.983-25.75L216.983 0.6 215.833-0.95 215.833-25.75Q215.833-28.35 214.953-29.5 214.083-30.65 212.033-30.65L212.033-30.65Q211.933-30.65 211.933-30.95 211.933-31.25 212.033-31.25L212.033-31.25 213.983-31.2Q215.483-31.1 216.433-31.1L216.433-31.1Q217.333-31.1 218.933-31.2L218.933-31.2 220.983-31.25Q221.133-31.25 221.133-30.95 221.133-30.65 220.983-30.65L220.983-30.65Q218.883-30.65 217.933-29.5 216.983-28.35 216.983-25.75L216.983-25.75ZM233.673 0.65Q230.783 0.65 228.553-0.78 226.333-2.2 225.133-4.63 223.923-7.05 223.923-9.9L223.923-9.9Q223.923-13.15 225.503-15.43 227.083-17.7 229.553-18.82 232.033-19.95 234.583-19.95L234.583-19.95Q237.533-19.95 239.733-18.5 241.923-17.05 243.103-14.68 244.283-12.3 244.283-9.65L244.283-9.65Q244.283-6.55 242.833-4.23 241.383-1.9 238.953-0.63 236.533 0.65 233.673 0.65L233.673 0.65ZM235.133-0.3Q237.883-0.3 239.383-2.25 240.883-4.2 240.883-8.25L240.883-8.25Q240.883-11.35 239.853-13.8 238.833-16.25 237.033-17.63 235.233-19 232.923-19L232.923-19Q230.233-19 228.753-17.05 227.283-15.1 227.283-11.45L227.283-11.45Q227.283-8.4 228.283-5.85 229.283-3.3 231.083-1.8 232.883-0.3 235.133-0.3L235.133-0.3ZM257.023 0.6Q254.123 0.6 252.073-0.75 250.023-2.1 248.953-4.3 247.873-6.5 247.873-9L247.873-9Q247.873-11.95 249.273-14.43 250.673-16.9 253.103-18.32 255.523-19.75 258.423-19.75L258.423-19.75Q261.223-19.75 262.723-18.25 264.223-16.75 264.223-14.05L264.223-14.05Q264.223-13.35 264.103-13.05 263.973-12.75 263.623-12.75L263.623-12.75 260.823-12.75 260.873-13.65Q260.873-16.15 259.773-17.45 258.673-18.75 256.773-18.75L256.773-18.75Q254.123-18.75 252.653-16.65 251.173-14.55 251.173-10.9L251.173-10.9Q251.173-6.55 253.223-3.85 255.273-1.15 258.973-1.15L258.973-1.15Q260.473-1.15 261.553-1.55 262.623-1.95 263.973-2.8L263.973-2.8 264.023-2.8Q264.173-2.8 264.303-2.63 264.423-2.45 264.323-2.3L264.323-2.3Q260.923 0.6 257.023 0.6L257.023 0.6ZM250.273-12.7L250.223-13.35 261.573-13.55 261.573-12.75 250.273-12.7Z" fill="black"></path></g></svg></g></svg></g></svg></g></svg></g><g transform="matrix(1,0,0,1,150.27345366118772,0)"><svg viewBox="0 0 94.97309267762456 76.38374553073649" height="76.38374553073649" width="94.97309267762456"><g><svg xmlns="http://www.w3.org/2000/svg" xmlns:xlink="http://www.w3.org/1999/xlink" version="1.1" x="0" y="0" viewBox="0 9.786 100.00034525290005 80.42699999999999" enable-background="new 0 0 100 100" xml:space="preserve" id="SvgjsSvg3270" width="94.97309267762456" height="76.38374553073649" class="icon-icon-0" data-fill-palette-color="accent"><path d="M49.942 52.994L90.595 51.529C88.068 47.352 87.436 43.698 82.606 43.068 75.377 42.128 68.148 41.185 60.918 40.242L18.843 34.762C20.101 36.792 39.724 53.361 49.942 52.994" fill="black"></path><path d="M0 9.786C4.391 17.043 26.615 32.858 32.953 33.672 50.283 35.903 67.61 38.132 84.939 40.36 81.546 34.753 80.759 31.01 74.627 29.401L47.91 22.378C31.94 18.182 15.97 13.984 0 9.786" fill="black"></path><path d="M63.108 66.207L94.349 59.547C92.321 56.201 92.315 54.188 88.522 54.358 82.364 54.631 76.208 54.907 70.051 55.18 58.708 55.686 47.365 56.194 36.023 56.698 37.298 58.064 54.94 67.947 63.108 66.207" fill="black"></path><path d="M87.682 90.213C93.407 86.494 94.944 82.492 98.201 76.406 101.852 69.582 99.458 68.562 95.38 61.81 94.963 61.122 89.538 62.042 88.927 62.714 88.182 63.532 88.679 68.169 88.633 69.21z" fill="black"></path><path d="M86.35 63.447C82.555 64.256 77.746 63.638 76.778 67.676L72.658 84.887C81.904 82.678 86.028 71.582 86.35 63.447" fill="black"></path><path d="M74.666 66.121C65.518 68.074 65.71 70.732 61.787 79.301 68.007 78.711 73.811 71.941 74.666 66.121" fill="black"></path></svg></g></svg></g><g></g></svg></g><defs><mask></mask></defs></svg><rect width="395.52" height="144.70220764408717" fill="black" stroke="none" visibility="hidden"></rect></g></mask><linearGradient x1="0.054" x2="0.941" y1="0.5" y2="0.5" id="bff20f29-7ef3-402d-b927-55590ad42489"><stop stop-color="#9c7945" offset="0"></stop><stop stop-color="#faf3aa" offset="0.498"></stop><stop stop-color="#9c7945" offset="1"></stop></linearGradient><rect width="395.52" height="144.70220764408717" fill="url(#bff20f29-7ef3-402d-b927-55590ad42489)" mask="url(#f332c1d5-4751-4e54-899f-a755d171e560)" data-fill-palette-color="primary"></rect><mask id="94acc9a9-b279-43bd-a0ec-e915f87b9ada"><g id="SvgjsG3284"><svg viewBox="0 0 395.52 144.70220764408717" height="144.70220764408717" width="395.52"><g><svg viewBox="0 0 395.52 144.70220764408717" height="144.70220764408717" width="395.52"><g transform="matrix(1,0,0,1,0,89.43176948870621)"><svg viewBox="0 0 395.52 55.27043815538096" height="55.27043815538096" width="395.52"><g id="SvgjsG3283"><svg viewBox="0 0 395.52 55.27043815538096" height="55.27043815538096" width="395.52" id="SvgjsSvg3282"><g><svg viewBox="0 0 395.52 55.27043815538096" height="55.27043815538096" width="395.52"><g transform="matrix(1,0,0,1,0,0)"><svg width="395.52" viewBox="2 -36.25 262.36893280568097 37.016666666665" height="55.27043815538096" data-palette-color="url(#bff20f29-7ef3-402d-b927-55590ad42489)"><g class="wordmark-text-0" data-fill-palette-color="primary" id="SvgjsG3281"><path d="M139.79 0.65Q137.69 0.65 135.91-0.55 134.14-1.75 133.06-3.93 131.99-6.1 131.99-8.9L131.99-8.9Q131.99-12.45 133.74-14.95 135.49-17.45 138.14-18.7 140.79-19.95 143.39-19.95L143.39-19.95Q146.84-19.95 149.49-17.7L149.49-17.7 148.94-14.35Q147.59-16.55 145.99-17.75 144.39-18.95 142.04-18.95L142.04-18.95Q138.89-18.95 137.06-16.73 135.24-14.5 135.24-10.4L135.24-10.4Q135.24-7.65 136.09-5.55 136.94-3.45 138.41-2.3 139.89-1.15 141.74-1.15L141.74-1.15Q143.79-1.15 145.49-2.25 147.19-3.35 149.04-5.4L149.04-5.4 149.44-5.05Q147.14-2.45 144.94-0.9 142.74 0.65 139.79 0.65L139.79 0.65ZM150.99-5.5Q150.99-3.7 151.41-2.9 151.84-2.1 152.79-2.1L152.79-2.1Q154.24-2.1 155.39-2.8L155.39-2.8 155.49-2.85Q155.69-2.85 155.76-2.6 155.84-2.35 155.69-2.25L155.69-2.25 150.19 0.35Q149.99 0.45 149.79 0.45L149.79 0.45Q149.14 0.45 148.66-0.75 148.19-1.95 148.19-4.05L148.19-4.05 148.19-29.85Q148.19-31.65 147.81-32.45 147.44-33.25 146.54-33.25L146.54-33.25Q145.89-33.25 144.24-32.55L144.24-32.55 144.14-32.55Q143.94-32.55 143.86-32.77 143.79-33 143.94-33.1L143.94-33.1 150.29-36.2Q150.39-36.25 150.54-36.25L150.54-36.25Q150.69-36.25 150.84-36.13 150.99-36 150.99-35.85L150.99-35.85 150.99-5.5ZM166.74 0.6Q163.83 0.6 161.79-0.75 159.74-2.1 158.66-4.3 157.58-6.5 157.58-9L157.58-9Q157.58-11.95 158.99-14.43 160.39-16.9 162.81-18.32 165.24-19.75 168.14-19.75L168.14-19.75Q170.94-19.75 172.44-18.25 173.94-16.75 173.94-14.05L173.94-14.05Q173.94-13.35 173.81-13.05 173.69-12.75 173.33-12.75L173.33-12.75 170.54-12.75 170.58-13.65Q170.58-16.15 169.49-17.45 168.39-18.75 166.49-18.75L166.49-18.75Q163.83-18.75 162.36-16.65 160.89-14.55 160.89-10.9L160.89-10.9Q160.89-6.55 162.94-3.85 164.99-1.15 168.69-1.15L168.69-1.15Q170.19-1.15 171.26-1.55 172.33-1.95 173.69-2.8L173.69-2.8 173.74-2.8Q173.89-2.8 174.01-2.63 174.14-2.45 174.04-2.3L174.04-2.3Q170.64 0.6 166.74 0.6L166.74 0.6ZM159.99-12.7L159.94-13.35 171.29-13.55 171.29-12.75 159.99-12.7Z" fill="white"></path><path d="M191.783-5.45L191.783-30.1 192.933-30 192.933-5.45Q192.933-2.85 193.853-1.73 194.783-0.6 196.833-0.6L196.833-0.6Q196.983-0.6 196.983-0.3 196.983 0 196.833 0L196.833 0Q195.583 0 194.933-0.05L194.933-0.05 192.433-0.1 189.883-0.05Q189.183 0 187.833 0L187.833 0Q187.733 0 187.733-0.3 187.733-0.6 187.833-0.6L187.833-0.6Q189.983-0.6 190.883-1.73 191.783-2.85 191.783-5.45L191.783-5.45ZM216.983 0.6Q216.983 0.7 216.733 0.75 216.483 0.8 216.383 0.7L216.383 0.7 193.383-27.15Q191.783-29.1 190.453-29.88 189.133-30.65 187.833-30.65L187.833-30.65Q187.683-30.65 187.683-30.95 187.683-31.25 187.833-31.25L187.833-31.25 189.683-31.2Q190.283-31.15 191.333-31.15L191.333-31.15Q192.433-31.15 193.133-31.2 193.833-31.25 194.233-31.25L194.233-31.25Q194.583-31.25 194.803-31.08 195.033-30.9 195.333-30.35L195.333-30.35Q195.933-29.45 196.583-28.65L196.583-28.65 216.583-4.1 216.983 0.6ZM216.983-25.75L216.983 0.6 215.833-0.95 215.833-25.75Q215.833-28.35 214.953-29.5 214.083-30.65 212.033-30.65L212.033-30.65Q211.933-30.65 211.933-30.95 211.933-31.25 212.033-31.25L212.033-31.25 213.983-31.2Q215.483-31.1 216.433-31.1L216.433-31.1Q217.333-31.1 218.933-31.2L218.933-31.2 220.983-31.25Q221.133-31.25 221.133-30.95 221.133-30.65 220.983-30.65L220.983-30.65Q218.883-30.65 217.933-29.5 216.983-28.35 216.983-25.75L216.983-25.75ZM233.673 0.65Q230.783 0.65 228.553-0.78 226.333-2.2 225.133-4.63 223.923-7.05 223.923-9.9L223.923-9.9Q223.923-13.15 225.503-15.43 227.083-17.7 229.553-18.82 232.033-19.95 234.583-19.95L234.583-19.95Q237.533-19.95 239.733-18.5 241.923-17.05 243.103-14.68 244.283-12.3 244.283-9.65L244.283-9.65Q244.283-6.55 242.833-4.23 241.383-1.9 238.953-0.63 236.533 0.65 233.673 0.65L233.673 0.65ZM235.133-0.3Q237.883-0.3 239.383-2.25 240.883-4.2 240.883-8.25L240.883-8.25Q240.883-11.35 239.853-13.8 238.833-16.25 237.033-17.63 235.233-19 232.923-19L232.923-19Q230.233-19 228.753-17.05 227.283-15.1 227.283-11.45L227.283-11.45Q227.283-8.4 228.283-5.85 229.283-3.3 231.083-1.8 232.883-0.3 235.133-0.3L235.133-0.3ZM257.023 0.6Q254.123 0.6 252.073-0.75 250.023-2.1 248.953-4.3 247.873-6.5 247.873-9L247.873-9Q247.873-11.95 249.273-14.43 250.673-16.9 253.103-18.32 255.523-19.75 258.423-19.75L258.423-19.75Q261.223-19.75 262.723-18.25 264.223-16.75 264.223-14.05L264.223-14.05Q264.223-13.35 264.103-13.05 263.973-12.75 263.623-12.75L263.623-12.75 260.823-12.75 260.873-13.65Q260.873-16.15 259.773-17.45 258.673-18.75 256.773-18.75L256.773-18.75Q254.123-18.75 252.653-16.65 251.173-14.55 251.173-10.9L251.173-10.9Q251.173-6.55 253.223-3.85 255.273-1.15 258.973-1.15L258.973-1.15Q260.473-1.15 261.553-1.55 262.623-1.95 263.973-2.8L263.973-2.8 264.023-2.8Q264.173-2.8 264.303-2.63 264.423-2.45 264.323-2.3L264.323-2.3Q260.923 0.6 257.023 0.6L257.023 0.6ZM250.273-12.7L250.223-13.35 261.573-13.55 261.573-12.75 250.273-12.7Z" fill="black"></path></g></svg></g></svg></g></svg></g></svg></g><g transform="matrix(1,0,0,1,150.27345366118772,0)"><svg viewBox="0 0 94.97309267762456 76.38374553073649" height="76.38374553073649" width="94.97309267762456"><g><svg xmlns="http://www.w3.org/2000/svg" xmlns:xlink="http://www.w3.org/1999/xlink" version="1.1" x="0" y="0" viewBox="0 9.786 100.00034525290005 80.42699999999999" enable-background="new 0 0 100 100" xml:space="preserve" id="SvgjsSvg3280" width="94.97309267762456" height="76.38374553073649" class="icon-icon-0" data-fill-palette-color="accent"><path d="M49.942 52.994L90.595 51.529C88.068 47.352 87.436 43.698 82.606 43.068 75.377 42.128 68.148 41.185 60.918 40.242L18.843 34.762C20.101 36.792 39.724 53.361 49.942 52.994" fill="black"></path><path d="M0 9.786C4.391 17.043 26.615 32.858 32.953 33.672 50.283 35.903 67.61 38.132 84.939 40.36 81.546 34.753 80.759 31.01 74.627 29.401L47.91 22.378C31.94 18.182 15.97 13.984 0 9.786" fill="black"></path><path d="M63.108 66.207L94.349 59.547C92.321 56.201 92.315 54.188 88.522 54.358 82.364 54.631 76.208 54.907 70.051 55.18 58.708 55.686 47.365 56.194 36.023 56.698 37.298 58.064 54.94 67.947 63.108 66.207" fill="black"></path><path d="M87.682 90.213C93.407 86.494 94.944 82.492 98.201 76.406 101.852 69.582 99.458 68.562 95.38 61.81 94.963 61.122 89.538 62.042 88.927 62.714 88.182 63.532 88.679 68.169 88.633 69.21z" fill="black"></path><path d="M86.35 63.447C82.555 64.256 77.746 63.638 76.778 67.676L72.658 84.887C81.904 82.678 86.028 71.582 86.35 63.447" fill="black"></path><path d="M74.666 66.121C65.518 68.074 65.71 70.732 61.787 79.301 68.007 78.711 73.811 71.941 74.666 66.121" fill="black"></path></svg></g></svg></g><g></g></svg></g><defs><mask></mask></defs><mask><g id="SvgjsG3279"><svg viewBox="0 0 395.52 144.70220764408717" height="144.70220764408717" width="395.52"><g><svg viewBox="0 0 395.52 144.70220764408717" height="144.70220764408717" width="395.52"><g transform="matrix(1,0,0,1,0,89.43176948870621)"><svg viewBox="0 0 395.52 55.27043815538096" height="55.27043815538096" width="395.52"><g id="SvgjsG3278"><svg viewBox="0 0 395.52 55.27043815538096" height="55.27043815538096" width="395.52" id="SvgjsSvg3277"><g><svg viewBox="0 0 395.52 55.27043815538096" height="55.27043815538096" width="395.52"><g transform="matrix(1,0,0,1,0,0)"><svg width="395.52" viewBox="2 -36.25 262.36893280568097 37.016666666665" height="55.27043815538096" data-palette-color="url(#bff20f29-7ef3-402d-b927-55590ad42489)"><g class="wordmark-text-0" data-fill-palette-color="primary" id="SvgjsG3276"><path d="M9.6-4.25Q9.6-2.65 10.03-1.93 10.45-1.2 11.68-0.9 12.9-0.6 15.55-0.6L15.55-0.6Q15.7-0.6 15.7-0.3 15.7 0 15.55 0L15.55 0Q13.5 0 12.35-0.05L12.35-0.05 8-0.1 4.65-0.05Q3.7 0 2.1 0L2.1 0Q2 0 2-0.3 2-0.6 2.1-0.6L2.1-0.6Q4-0.6 4.88-0.85 5.75-1.1 6.05-1.83 6.35-2.55 6.35-4.05L6.35-4.05 6.35-27.2Q6.35-28.7 6.05-29.4 5.75-30.1 4.88-30.38 4-30.65 2.1-30.65L2.1-30.65Q2-30.65 2-30.95 2-31.25 2.1-31.25L2.1-31.25 4.6-31.2Q6.7-31.1 7.95-31.1L7.95-31.1Q9.2-31.1 10.75-31.25L10.75-31.25Q11.35-31.25 12.65-31.33 13.95-31.4 14.9-31.4L14.9-31.4Q19.5-31.4 22.28-29.35 25.05-27.3 25.05-23.1L25.05-23.1Q25.05-19.8 23.43-17.55 21.8-15.3 19.25-14.2 16.7-13.1 14-13.1L14-13.1Q12.55-13.1 11.6-13.35L11.6-13.35Q11.45-13.35 11.45-13.6L11.45-13.6Q11.45-13.75 11.53-13.9 11.6-14.05 11.7-14L11.7-14Q12.5-13.8 13.5-13.8L13.5-13.8Q16.8-13.8 19.07-15.95 21.35-18.1 21.35-22.15L21.35-22.15Q21.35-26.1 19.2-28.38 17.05-30.65 13.7-30.65L13.7-30.65Q11.9-30.65 11.1-30.45 10.3-30.25 9.95-29.53 9.6-28.8 9.6-27.1L9.6-27.1 9.6-4.25ZM38.7 0.65Q35.8 0.65 33.57-0.78 31.35-2.2 30.15-4.63 28.95-7.05 28.95-9.9L28.95-9.9Q28.95-13.15 30.52-15.43 32.1-17.7 34.57-18.82 37.05-19.95 39.6-19.95L39.6-19.95Q42.55-19.95 44.75-18.5 46.95-17.05 48.12-14.68 49.3-12.3 49.3-9.65L49.3-9.65Q49.3-6.55 47.85-4.23 46.4-1.9 43.97-0.63 41.55 0.65 38.7 0.65L38.7 0.65ZM40.15-0.3Q42.9-0.3 44.4-2.25 45.9-4.2 45.9-8.25L45.9-8.25Q45.9-11.35 44.87-13.8 43.85-16.25 42.05-17.63 40.25-19 37.95-19L37.95-19Q35.25-19 33.77-17.05 32.3-15.1 32.3-11.45L32.3-11.45Q32.3-8.4 33.3-5.85 34.3-3.3 36.1-1.8 37.9-0.3 40.15-0.3L40.15-0.3ZM58.05-14.1Q60.7-17.4 62.15-18.57 63.6-19.75 64.84-19.75L64.84-19.75Q65.95-19.75 66.95-19.15 67.95-18.55 67.95-17.7L67.95-17.7Q67.95-17.05 67.5-16.6 67.05-16.15 66.3-16.15L66.3-16.15Q65.84-16.15 65.52-16.32 65.2-16.5 64.75-16.85L64.75-16.85Q64.3-17.25 63.9-17.45 63.5-17.65 62.95-17.65L62.95-17.65Q62.2-17.65 61.3-16.9 60.4-16.15 58.25-13.55L58.25-13.55 58.05-14.1ZM53.35 0Q53.2 0 53.2-0.3 53.2-0.6 53.35-0.6L53.35-0.6Q54.7-0.6 55.35-0.88 56-1.15 56.22-1.85 56.45-2.55 56.45-4.05L56.45-4.05 56.45-13.95Q56.45-15.65 56.05-16.4 55.65-17.15 54.7-17.15L54.7-17.15Q53.9-17.15 52-16.4L52-16.4 51.9-16.4Q51.7-16.4 51.62-16.63 51.55-16.85 51.75-16.95L51.75-16.95 57.55-19.7Q57.65-19.75 57.85-19.75L57.85-19.75Q58.3-19.75 58.8-18.6 59.3-17.45 59.3-15.65L59.3-15.65 59.3-4.05Q59.3-2.55 59.67-1.85 60.05-1.15 61.05-0.88 62.05-0.6 64.15-0.6L64.15-0.6Q64.34-0.6 64.34-0.3 64.34 0 64.15 0L64.15 0Q62.55 0 61.6-0.05L61.6-0.05 57.9-0.1 55.15-0.05Q54.5 0 53.35 0L53.35 0ZM78.69 0.6Q76.59 0.6 75.24-0.35 73.89-1.3 73.89-3.5L73.89-3.5 73.89-15.25Q73.89-16.55 73.72-17.1 73.54-17.65 73.04-17.82 72.54-18 71.34-18L71.34-18Q71.14-18 71.14-18.32 71.14-18.65 71.34-18.65L71.34-18.65Q73.34-18.7 74.59-19.73 75.84-20.75 76.04-22.45L76.04-22.45Q76.04-22.6 76.44-22.6L76.44-22.6Q76.79-22.6 76.79-22.45L76.79-22.45 76.79-5.2Q76.79-1.15 80.74-1.15L80.74-1.15Q83.04-1.15 84.74-2.55L84.74-2.55 84.84-2.6Q85.04-2.6 85.14-2.38 85.24-2.15 85.09-2.05L85.09-2.05Q83.24-0.6 81.77 0 80.29 0.6 78.69 0.6L78.69 0.6ZM83.54-16.85Q80.34-17.65 75.94-17.65L75.94-17.65 75.94-18.75Q79.09-18.75 83.74-19.25L83.74-19.25Q83.84-19.25 83.97-18.88 84.09-18.5 84.09-18.05L84.09-18.05Q84.09-17.65 83.92-17.23 83.74-16.8 83.54-16.85L83.54-16.85ZM101.89 0.3Q101.69 0.4 101.49 0.4L101.49 0.4Q100.74 0.4 100.19-0.75 99.64-1.9 99.64-3.8L99.64-3.8 99.64-13.25Q99.64-18.85 96.49-18.85L96.49-18.85Q94.79-18.85 93.92-17.73 93.04-16.6 92.74-15.15L92.74-15.15Q92.54-14.2 92.17-13.65 91.79-13.1 90.84-13.1L90.84-13.1Q90.04-13.1 89.62-13.55 89.19-14 89.19-14.6L89.19-14.6Q89.19-15.8 90.74-17 92.29-18.2 94.44-19 96.59-19.8 98.29-19.8L98.29-19.8Q100.34-19.8 101.39-18.5 102.44-17.2 102.44-14.75L102.44-14.75 102.44-5.4Q102.44-3.65 102.89-2.85 103.34-2.05 104.34-2.05L104.34-2.05Q105.34-2.05 106.84-2.7L106.84-2.7 106.94-2.7Q107.14-2.7 107.19-2.48 107.24-2.25 107.04-2.15L107.04-2.15 101.89 0.3ZM92.89 0.35Q91.04 0.35 90.02-0.63 88.99-1.6 88.99-3.1L88.99-3.1Q88.99-4.6 90.19-5.7 91.39-6.8 94.14-7.8L94.14-7.8 100.14-10.05 100.29-9.4 94.99-7.35Q93.59-6.8 92.97-6.08 92.34-5.35 92.34-4.35L92.34-4.35Q92.34-3.15 93.12-2.33 93.89-1.5 95.14-1.5L95.14-1.5Q96.14-1.5 97.54-2.3L97.54-2.3 100.69-4.2 100.79-3.55 97.09-1.15Q95.84-0.35 94.89 0 93.94 0.35 92.89 0.35L92.89 0.35ZM109.14 0Q108.99 0 108.99-0.3 108.99-0.6 109.14-0.6L109.14-0.6Q110.49-0.6 111.14-0.88 111.79-1.15 112.04-1.88 112.29-2.6 112.29-4.05L112.29-4.05 112.29-29.9Q112.29-31.7 111.94-32.5 111.59-33.3 110.69-33.3L110.69-33.3Q109.94-33.3 108.39-32.6L108.39-32.6 108.29-32.6Q108.14-32.6 108.06-32.85 107.99-33.1 108.14-33.15L108.14-33.15 114.54-36.2Q114.64-36.25 114.79-36.25L114.79-36.25Q114.94-36.25 115.09-36.13 115.24-36 115.24-35.85L115.24-35.85 115.24-4.05Q115.24-2.6 115.46-1.9 115.69-1.2 116.34-0.9 116.99-0.6 118.34-0.6L118.34-0.6Q118.49-0.6 118.49-0.3 118.49 0 118.34 0L118.34 0Q117.24 0 116.54-0.05L116.54-0.05 113.74-0.1 111.04-0.05Q110.34 0 109.14 0L109.14 0Z" fill="black"></path><path d="M139.79 0.65Q137.69 0.65 135.91-0.55 134.14-1.75 133.06-3.93 131.99-6.1 131.99-8.9L131.99-8.9Q131.99-12.45 133.74-14.95 135.49-17.45 138.14-18.7 140.79-19.95 143.39-19.95L143.39-19.95Q146.84-19.95 149.49-17.7L149.49-17.7 148.94-14.35Q147.59-16.55 145.99-17.75 144.39-18.95 142.04-18.95L142.04-18.95Q138.89-18.95 137.06-16.73 135.24-14.5 135.24-10.4L135.24-10.4Q135.24-7.65 136.09-5.55 136.94-3.45 138.41-2.3 139.89-1.15 141.74-1.15L141.74-1.15Q143.79-1.15 145.49-2.25 147.19-3.35 149.04-5.4L149.04-5.4 149.44-5.05Q147.14-2.45 144.94-0.9 142.74 0.65 139.79 0.65L139.79 0.65ZM150.99-5.5Q150.99-3.7 151.41-2.9 151.84-2.1 152.79-2.1L152.79-2.1Q154.24-2.1 155.39-2.8L155.39-2.8 155.49-2.85Q155.69-2.85 155.76-2.6 155.84-2.35 155.69-2.25L155.69-2.25 150.19 0.35Q149.99 0.45 149.79 0.45L149.79 0.45Q149.14 0.45 148.66-0.75 148.19-1.95 148.19-4.05L148.19-4.05 148.19-29.85Q148.19-31.65 147.81-32.45 147.44-33.25 146.54-33.25L146.54-33.25Q145.89-33.25 144.24-32.55L144.24-32.55 144.14-32.55Q143.94-32.55 143.86-32.77 143.79-33 143.94-33.1L143.94-33.1 150.29-36.2Q150.39-36.25 150.54-36.25L150.54-36.25Q150.69-36.25 150.84-36.13 150.99-36 150.99-35.85L150.99-35.85 150.99-5.5ZM166.74 0.6Q163.83 0.6 161.79-0.75 159.74-2.1 158.66-4.3 157.58-6.5 157.58-9L157.58-9Q157.58-11.95 158.99-14.43 160.39-16.9 162.81-18.32 165.24-19.75 168.14-19.75L168.14-19.75Q170.94-19.75 172.44-18.25 173.94-16.75 173.94-14.05L173.94-14.05Q173.94-13.35 173.81-13.05 173.69-12.75 173.33-12.75L173.33-12.75 170.54-12.75 170.58-13.65Q170.58-16.15 169.49-17.45 168.39-18.75 166.49-18.75L166.49-18.75Q163.83-18.75 162.36-16.65 160.89-14.55 160.89-10.9L160.89-10.9Q160.89-6.55 162.94-3.85 164.99-1.15 168.69-1.15L168.69-1.15Q170.19-1.15 171.26-1.55 172.33-1.95 173.69-2.8L173.69-2.8 173.74-2.8Q173.89-2.8 174.01-2.63 174.14-2.45 174.04-2.3L174.04-2.3Q170.64 0.6 166.74 0.6L166.74 0.6ZM159.99-12.7L159.94-13.35 171.29-13.55 171.29-12.75 159.99-12.7Z" fill="black"></path><path d="M191.783-5.45L191.783-30.1 192.933-30 192.933-5.45Q192.933-2.85 193.853-1.73 194.783-0.6 196.833-0.6L196.833-0.6Q196.983-0.6 196.983-0.3 196.983 0 196.833 0L196.833 0Q195.583 0 194.933-0.05L194.933-0.05 192.433-0.1 189.883-0.05Q189.183 0 187.833 0L187.833 0Q187.733 0 187.733-0.3 187.733-0.6 187.833-0.6L187.833-0.6Q189.983-0.6 190.883-1.73 191.783-2.85 191.783-5.45L191.783-5.45ZM216.983 0.6Q216.983 0.7 216.733 0.75 216.483 0.8 216.383 0.7L216.383 0.7 193.383-27.15Q191.783-29.1 190.453-29.88 189.133-30.65 187.833-30.65L187.833-30.65Q187.683-30.65 187.683-30.95 187.683-31.25 187.833-31.25L187.833-31.25 189.683-31.2Q190.283-31.15 191.333-31.15L191.333-31.15Q192.433-31.15 193.133-31.2 193.833-31.25 194.233-31.25L194.233-31.25Q194.583-31.25 194.803-31.08 195.033-30.9 195.333-30.35L195.333-30.35Q195.933-29.45 196.583-28.65L196.583-28.65 216.583-4.1 216.983 0.6ZM216.983-25.75L216.983 0.6 215.833-0.95 215.833-25.75Q215.833-28.35 214.953-29.5 214.083-30.65 212.033-30.65L212.033-30.65Q211.933-30.65 211.933-30.95 211.933-31.25 212.033-31.25L212.033-31.25 213.983-31.2Q215.483-31.1 216.433-31.1L216.433-31.1Q217.333-31.1 218.933-31.2L218.933-31.2 220.983-31.25Q221.133-31.25 221.133-30.95 221.133-30.65 220.983-30.65L220.983-30.65Q218.883-30.65 217.933-29.5 216.983-28.35 216.983-25.75L216.983-25.75ZM233.673 0.65Q230.783 0.65 228.553-0.78 226.333-2.2 225.133-4.63 223.923-7.05 223.923-9.9L223.923-9.9Q223.923-13.15 225.503-15.43 227.083-17.7 229.553-18.82 232.033-19.95 234.583-19.95L234.583-19.95Q237.533-19.95 239.733-18.5 241.923-17.05 243.103-14.68 244.283-12.3 244.283-9.65L244.283-9.65Q244.283-6.55 242.833-4.23 241.383-1.9 238.953-0.63 236.533 0.65 233.673 0.65L233.673 0.65ZM235.133-0.3Q237.883-0.3 239.383-2.25 240.883-4.2 240.883-8.25L240.883-8.25Q240.883-11.35 239.853-13.8 238.833-16.25 237.033-17.63 235.233-19 232.923-19L232.923-19Q230.233-19 228.753-17.05 227.283-15.1 227.283-11.45L227.283-11.45Q227.283-8.4 228.283-5.85 229.283-3.3 231.083-1.8 232.883-0.3 235.133-0.3L235.133-0.3ZM257.023 0.6Q254.123 0.6 252.073-0.75 250.023-2.1 248.953-4.3 247.873-6.5 247.873-9L247.873-9Q247.873-11.95 249.273-14.43 250.673-16.9 253.103-18.32 255.523-19.75 258.423-19.75L258.423-19.75Q261.223-19.75 262.723-18.25 264.223-16.75 264.223-14.05L264.223-14.05Q264.223-13.35 264.103-13.05 263.973-12.75 263.623-12.75L263.623-12.75 260.823-12.75 260.873-13.65Q260.873-16.15 259.773-17.45 258.673-18.75 256.773-18.75L256.773-18.75Q254.123-18.75 252.653-16.65 251.173-14.55 251.173-10.9L251.173-10.9Q251.173-6.55 253.223-3.85 255.273-1.15 258.973-1.15L258.973-1.15Q260.473-1.15 261.553-1.55 262.623-1.95 263.973-2.8L263.973-2.8 264.023-2.8Q264.173-2.8 264.303-2.63 264.423-2.45 264.323-2.3L264.323-2.3Q260.923 0.6 257.023 0.6L257.023 0.6ZM250.273-12.7L250.223-13.35 261.573-13.55 261.573-12.75 250.273-12.7Z" fill="black"></path></g></svg></g></svg></g></svg></g></svg></g><g transform="matrix(1,0,0,1,150.27345366118772,0)"><svg viewBox="0 0 94.97309267762456 76.38374553073649" height="76.38374553073649" width="94.97309267762456"><g><svg xmlns="http://www.w3.org/2000/svg" xmlns:xlink="http://www.w3.org/1999/xlink" version="1.1" x="0" y="0" viewBox="0 9.786 100.00034525290005 80.42699999999999" enable-background="new 0 0 100 100" xml:space="preserve" id="SvgjsSvg3275" width="94.97309267762456" height="76.38374553073649" class="icon-icon-0" data-fill-palette-color="accent"><path d="M49.942 52.994L90.595 51.529C88.068 47.352 87.436 43.698 82.606 43.068 75.377 42.128 68.148 41.185 60.918 40.242L18.843 34.762C20.101 36.792 39.724 53.361 49.942 52.994" fill="black"></path><path d="M0 9.786C4.391 17.043 26.615 32.858 32.953 33.672 50.283 35.903 67.61 38.132 84.939 40.36 81.546 34.753 80.759 31.01 74.627 29.401L47.91 22.378C31.94 18.182 15.97 13.984 0 9.786" fill="black"></path><path d="M63.108 66.207L94.349 59.547C92.321 56.201 92.315 54.188 88.522 54.358 82.364 54.631 76.208 54.907 70.051 55.18 58.708 55.686 47.365 56.194 36.023 56.698 37.298 58.064 54.94 67.947 63.108 66.207" fill="black"></path><path d="M87.682 90.213C93.407 86.494 94.944 82.492 98.201 76.406 101.852 69.582 99.458 68.562 95.38 61.81 94.963 61.122 89.538 62.042 88.927 62.714 88.182 63.532 88.679 68.169 88.633 69.21z" fill="black"></path><path d="M86.35 63.447C82.555 64.256 77.746 63.638 76.778 67.676L72.658 84.887C81.904 82.678 86.028 71.582 86.35 63.447" fill="black"></path><path d="M74.666 66.121C65.518 68.074 65.71 70.732 61.787 79.301 68.007 78.711 73.811 71.941 74.666 66.121" fill="black"></path></svg></g></svg></g><g></g></svg></g><defs><mask></mask></defs></svg><rect width="395.52" height="144.70220764408717" fill="black" stroke="none" visibility="hidden"></rect></g></mask></svg><rect width="395.52" height="144.70220764408717" fill="black" stroke="none" visibility="hidden"></rect></g></mask><linearGradient x1="0.054" x2="0.941" y1="0.5" y2="0.5" id="73224be3-6bec-4b0c-b711-a5ed42340666"><stop stop-color="#26282a" offset="0"></stop><stop stop-color="#9e9fa0" offset="0.498"></stop><stop stop-color="#26282a" offset="1"></stop></linearGradient><rect width="395.52" height="144.70220764408717" fill="url(#73224be3-6bec-4b0c-b711-a5ed42340666)" mask="url(#94acc9a9-b279-43bd-a0ec-e915f87b9ada)" data-fill-palette-color="secondary"></rect><mask id="f1afcca2-1c2d-4f8a-9ab3-c59c6d6479a7"><g id="SvgjsG3304"><svg viewBox="0 0 395.52 144.70220764408717" height="144.70220764408717" width="395.52"><g><svg viewBox="0 0 395.52 144.70220764408717" height="144.70220764408717" width="395.52"><g transform="matrix(1,0,0,1,0,89.43176948870621)"><svg viewBox="0 0 395.52 55.27043815538096" height="55.27043815538096" width="395.52"><g id="SvgjsG3303"><svg viewBox="0 0 395.52 55.27043815538096" height="55.27043815538096" width="395.52" id="SvgjsSvg3302"><g><svg viewBox="0 0 395.52 55.27043815538096" height="55.27043815538096" width="395.52"><g transform="matrix(1,0,0,1,0,0)"><svg width="395.52" viewBox="2 -36.25 262.36893280568097 37.016666666665" height="55.27043815538096" data-palette-color="url(#bff20f29-7ef3-402d-b927-55590ad42489)"><g class="wordmark-text-0" data-fill-palette-color="primary" id="SvgjsG3301"><path d="M191.783-5.45L191.783-30.1 192.933-30 192.933-5.45Q192.933-2.85 193.853-1.73 194.783-0.6 196.833-0.6L196.833-0.6Q196.983-0.6 196.983-0.3 196.983 0 196.833 0L196.833 0Q195.583 0 194.933-0.05L194.933-0.05 192.433-0.1 189.883-0.05Q189.183 0 187.833 0L187.833 0Q187.733 0 187.733-0.3 187.733-0.6 187.833-0.6L187.833-0.6Q189.983-0.6 190.883-1.73 191.783-2.85 191.783-5.45L191.783-5.45ZM216.983 0.6Q216.983 0.7 216.733 0.75 216.483 0.8 216.383 0.7L216.383 0.7 193.383-27.15Q191.783-29.1 190.453-29.88 189.133-30.65 187.833-30.65L187.833-30.65Q187.683-30.65 187.683-30.95 187.683-31.25 187.833-31.25L187.833-31.25 189.683-31.2Q190.283-31.15 191.333-31.15L191.333-31.15Q192.433-31.15 193.133-31.2 193.833-31.25 194.233-31.25L194.233-31.25Q194.583-31.25 194.803-31.08 195.033-30.9 195.333-30.35L195.333-30.35Q195.933-29.45 196.583-28.65L196.583-28.65 216.583-4.1 216.983 0.6ZM216.983-25.75L216.983 0.6 215.833-0.95 215.833-25.75Q215.833-28.35 214.953-29.5 214.083-30.65 212.033-30.65L212.033-30.65Q211.933-30.65 211.933-30.95 211.933-31.25 212.033-31.25L212.033-31.25 213.983-31.2Q215.483-31.1 216.433-31.1L216.433-31.1Q217.333-31.1 218.933-31.2L218.933-31.2 220.983-31.25Q221.133-31.25 221.133-30.95 221.133-30.65 220.983-30.65L220.983-30.65Q218.883-30.65 217.933-29.5 216.983-28.35 216.983-25.75L216.983-25.75ZM233.673 0.65Q230.783 0.65 228.553-0.78 226.333-2.2 225.133-4.63 223.923-7.05 223.923-9.9L223.923-9.9Q223.923-13.15 225.503-15.43 227.083-17.7 229.553-18.82 232.033-19.95 234.583-19.95L234.583-19.95Q237.533-19.95 239.733-18.5 241.923-17.05 243.103-14.68 244.283-12.3 244.283-9.65L244.283-9.65Q244.283-6.55 242.833-4.23 241.383-1.9 238.953-0.63 236.533 0.65 233.673 0.65L233.673 0.65ZM235.133-0.3Q237.883-0.3 239.383-2.25 240.883-4.2 240.883-8.25L240.883-8.25Q240.883-11.35 239.853-13.8 238.833-16.25 237.033-17.63 235.233-19 232.923-19L232.923-19Q230.233-19 228.753-17.05 227.283-15.1 227.283-11.45L227.283-11.45Q227.283-8.4 228.283-5.85 229.283-3.3 231.083-1.8 232.883-0.3 235.133-0.3L235.133-0.3ZM257.023 0.6Q254.123 0.6 252.073-0.75 250.023-2.1 248.953-4.3 247.873-6.5 247.873-9L247.873-9Q247.873-11.95 249.273-14.43 250.673-16.9 253.103-18.32 255.523-19.75 258.423-19.75L258.423-19.75Q261.223-19.75 262.723-18.25 264.223-16.75 264.223-14.05L264.223-14.05Q264.223-13.35 264.103-13.05 263.973-12.75 263.623-12.75L263.623-12.75 260.823-12.75 260.873-13.65Q260.873-16.15 259.773-17.45 258.673-18.75 256.773-18.75L256.773-18.75Q254.123-18.75 252.653-16.65 251.173-14.55 251.173-10.9L251.173-10.9Q251.173-6.55 253.223-3.85 255.273-1.15 258.973-1.15L258.973-1.15Q260.473-1.15 261.553-1.55 262.623-1.95 263.973-2.8L263.973-2.8 264.023-2.8Q264.173-2.8 264.303-2.63 264.423-2.45 264.323-2.3L264.323-2.3Q260.923 0.6 257.023 0.6L257.023 0.6ZM250.273-12.7L250.223-13.35 261.573-13.55 261.573-12.75 250.273-12.7Z" fill="white"></path></g></svg></g></svg></g></svg></g></svg></g><g transform="matrix(1,0,0,1,150.27345366118772,0)"><svg viewBox="0 0 94.97309267762456 76.38374553073649" height="76.38374553073649" width="94.97309267762456"><g><svg xmlns="http://www.w3.org/2000/svg" xmlns:xlink="http://www.w3.org/1999/xlink" version="1.1" x="0" y="0" viewBox="0 9.786 100.00034525290005 80.42699999999999" enable-background="new 0 0 100 100" xml:space="preserve" id="SvgjsSvg3300" width="94.97309267762456" height="76.38374553073649" class="icon-icon-0" data-fill-palette-color="accent"><path d="M49.942 52.994L90.595 51.529C88.068 47.352 87.436 43.698 82.606 43.068 75.377 42.128 68.148 41.185 60.918 40.242L18.843 34.762C20.101 36.792 39.724 53.361 49.942 52.994" fill="white"></path><path d="M0 9.786C4.391 17.043 26.615 32.858 32.953 33.672 50.283 35.903 67.61 38.132 84.939 40.36 81.546 34.753 80.759 31.01 74.627 29.401L47.91 22.378C31.94 18.182 15.97 13.984 0 9.786" fill="white"></path><path d="M63.108 66.207L94.349 59.547C92.321 56.201 92.315 54.188 88.522 54.358 82.364 54.631 76.208 54.907 70.051 55.18 58.708 55.686 47.365 56.194 36.023 56.698 37.298 58.064 54.94 67.947 63.108 66.207" fill="white"></path><path d="M87.682 90.213C93.407 86.494 94.944 82.492 98.201 76.406 101.852 69.582 99.458 68.562 95.38 61.81 94.963 61.122 89.538 62.042 88.927 62.714 88.182 63.532 88.679 68.169 88.633 69.21z" fill="white"></path><path d="M86.35 63.447C82.555 64.256 77.746 63.638 76.778 67.676L72.658 84.887C81.904 82.678 86.028 71.582 86.35 63.447" fill="white"></path><path d="M74.666 66.121C65.518 68.074 65.71 70.732 61.787 79.301 68.007 78.711 73.811 71.941 74.666 66.121" fill="white"></path></svg></g></svg></g><g></g></svg></g><defs><mask></mask></defs><mask><g id="SvgjsG3299"><svg viewBox="0 0 395.52 144.70220764408717" height="144.70220764408717" width="395.52"><g><svg viewBox="0 0 395.52 144.70220764408717" height="144.70220764408717" width="395.52"><g transform="matrix(1,0,0,1,0,89.43176948870621)"><svg viewBox="0 0 395.52 55.27043815538096" height="55.27043815538096" width="395.52"><g id="SvgjsG3298"><svg viewBox="0 0 395.52 55.27043815538096" height="55.27043815538096" width="395.52" id="SvgjsSvg3297"><g><svg viewBox="0 0 395.52 55.27043815538096" height="55.27043815538096" width="395.52"><g transform="matrix(1,0,0,1,0,0)"><svg width="395.52" viewBox="2 -36.25 262.36893280568097 37.016666666665" height="55.27043815538096" data-palette-color="url(#bff20f29-7ef3-402d-b927-55590ad42489)"><g class="wordmark-text-0" data-fill-palette-color="primary" id="SvgjsG3296"><path d="M9.6-4.25Q9.6-2.65 10.03-1.93 10.45-1.2 11.68-0.9 12.9-0.6 15.55-0.6L15.55-0.6Q15.7-0.6 15.7-0.3 15.7 0 15.55 0L15.55 0Q13.5 0 12.35-0.05L12.35-0.05 8-0.1 4.65-0.05Q3.7 0 2.1 0L2.1 0Q2 0 2-0.3 2-0.6 2.1-0.6L2.1-0.6Q4-0.6 4.88-0.85 5.75-1.1 6.05-1.83 6.35-2.55 6.35-4.05L6.35-4.05 6.35-27.2Q6.35-28.7 6.05-29.4 5.75-30.1 4.88-30.38 4-30.65 2.1-30.65L2.1-30.65Q2-30.65 2-30.95 2-31.25 2.1-31.25L2.1-31.25 4.6-31.2Q6.7-31.1 7.95-31.1L7.95-31.1Q9.2-31.1 10.75-31.25L10.75-31.25Q11.35-31.25 12.65-31.33 13.95-31.4 14.9-31.4L14.9-31.4Q19.5-31.4 22.28-29.35 25.05-27.3 25.05-23.1L25.05-23.1Q25.05-19.8 23.43-17.55 21.8-15.3 19.25-14.2 16.7-13.1 14-13.1L14-13.1Q12.55-13.1 11.6-13.35L11.6-13.35Q11.45-13.35 11.45-13.6L11.45-13.6Q11.45-13.75 11.53-13.9 11.6-14.05 11.7-14L11.7-14Q12.5-13.8 13.5-13.8L13.5-13.8Q16.8-13.8 19.07-15.95 21.35-18.1 21.35-22.15L21.35-22.15Q21.35-26.1 19.2-28.38 17.05-30.65 13.7-30.65L13.7-30.65Q11.9-30.65 11.1-30.45 10.3-30.25 9.95-29.53 9.6-28.8 9.6-27.1L9.6-27.1 9.6-4.25ZM38.7 0.65Q35.8 0.65 33.57-0.78 31.35-2.2 30.15-4.63 28.95-7.05 28.95-9.9L28.95-9.9Q28.95-13.15 30.52-15.43 32.1-17.7 34.57-18.82 37.05-19.95 39.6-19.95L39.6-19.95Q42.55-19.95 44.75-18.5 46.95-17.05 48.12-14.68 49.3-12.3 49.3-9.65L49.3-9.65Q49.3-6.55 47.85-4.23 46.4-1.9 43.97-0.63 41.55 0.65 38.7 0.65L38.7 0.65ZM40.15-0.3Q42.9-0.3 44.4-2.25 45.9-4.2 45.9-8.25L45.9-8.25Q45.9-11.35 44.87-13.8 43.85-16.25 42.05-17.63 40.25-19 37.95-19L37.95-19Q35.25-19 33.77-17.05 32.3-15.1 32.3-11.45L32.3-11.45Q32.3-8.4 33.3-5.85 34.3-3.3 36.1-1.8 37.9-0.3 40.15-0.3L40.15-0.3ZM58.05-14.1Q60.7-17.4 62.15-18.57 63.6-19.75 64.84-19.75L64.84-19.75Q65.95-19.75 66.95-19.15 67.95-18.55 67.95-17.7L67.95-17.7Q67.95-17.05 67.5-16.6 67.05-16.15 66.3-16.15L66.3-16.15Q65.84-16.15 65.52-16.32 65.2-16.5 64.75-16.85L64.75-16.85Q64.3-17.25 63.9-17.45 63.5-17.65 62.95-17.65L62.95-17.65Q62.2-17.65 61.3-16.9 60.4-16.15 58.25-13.55L58.25-13.55 58.05-14.1ZM53.35 0Q53.2 0 53.2-0.3 53.2-0.6 53.35-0.6L53.35-0.6Q54.7-0.6 55.35-0.88 56-1.15 56.22-1.85 56.45-2.55 56.45-4.05L56.45-4.05 56.45-13.95Q56.45-15.65 56.05-16.4 55.65-17.15 54.7-17.15L54.7-17.15Q53.9-17.15 52-16.4L52-16.4 51.9-16.4Q51.7-16.4 51.62-16.63 51.55-16.85 51.75-16.95L51.75-16.95 57.55-19.7Q57.65-19.75 57.85-19.75L57.85-19.75Q58.3-19.75 58.8-18.6 59.3-17.45 59.3-15.65L59.3-15.65 59.3-4.05Q59.3-2.55 59.67-1.85 60.05-1.15 61.05-0.88 62.05-0.6 64.15-0.6L64.15-0.6Q64.34-0.6 64.34-0.3 64.34 0 64.15 0L64.15 0Q62.55 0 61.6-0.05L61.6-0.05 57.9-0.1 55.15-0.05Q54.5 0 53.35 0L53.35 0ZM78.69 0.6Q76.59 0.6 75.24-0.35 73.89-1.3 73.89-3.5L73.89-3.5 73.89-15.25Q73.89-16.55 73.72-17.1 73.54-17.65 73.04-17.82 72.54-18 71.34-18L71.34-18Q71.14-18 71.14-18.32 71.14-18.65 71.34-18.65L71.34-18.65Q73.34-18.7 74.59-19.73 75.84-20.75 76.04-22.45L76.04-22.45Q76.04-22.6 76.44-22.6L76.44-22.6Q76.79-22.6 76.79-22.45L76.79-22.45 76.79-5.2Q76.79-1.15 80.74-1.15L80.74-1.15Q83.04-1.15 84.74-2.55L84.74-2.55 84.84-2.6Q85.04-2.6 85.14-2.38 85.24-2.15 85.09-2.05L85.09-2.05Q83.24-0.6 81.77 0 80.29 0.6 78.69 0.6L78.69 0.6ZM83.54-16.85Q80.34-17.65 75.94-17.65L75.94-17.65 75.94-18.75Q79.09-18.75 83.74-19.25L83.74-19.25Q83.84-19.25 83.97-18.88 84.09-18.5 84.09-18.05L84.09-18.05Q84.09-17.65 83.92-17.23 83.74-16.8 83.54-16.85L83.54-16.85ZM101.89 0.3Q101.69 0.4 101.49 0.4L101.49 0.4Q100.74 0.4 100.19-0.75 99.64-1.9 99.64-3.8L99.64-3.8 99.64-13.25Q99.64-18.85 96.49-18.85L96.49-18.85Q94.79-18.85 93.92-17.73 93.04-16.6 92.74-15.15L92.74-15.15Q92.54-14.2 92.17-13.65 91.79-13.1 90.84-13.1L90.84-13.1Q90.04-13.1 89.62-13.55 89.19-14 89.19-14.6L89.19-14.6Q89.19-15.8 90.74-17 92.29-18.2 94.44-19 96.59-19.8 98.29-19.8L98.29-19.8Q100.34-19.8 101.39-18.5 102.44-17.2 102.44-14.75L102.44-14.75 102.44-5.4Q102.44-3.65 102.89-2.85 103.34-2.05 104.34-2.05L104.34-2.05Q105.34-2.05 106.84-2.7L106.84-2.7 106.94-2.7Q107.14-2.7 107.19-2.48 107.24-2.25 107.04-2.15L107.04-2.15 101.89 0.3ZM92.89 0.35Q91.04 0.35 90.02-0.63 88.99-1.6 88.99-3.1L88.99-3.1Q88.99-4.6 90.19-5.7 91.39-6.8 94.14-7.8L94.14-7.8 100.14-10.05 100.29-9.4 94.99-7.35Q93.59-6.8 92.97-6.08 92.34-5.35 92.34-4.35L92.34-4.35Q92.34-3.15 93.12-2.33 93.89-1.5 95.14-1.5L95.14-1.5Q96.14-1.5 97.54-2.3L97.54-2.3 100.69-4.2 100.79-3.55 97.09-1.15Q95.84-0.35 94.89 0 93.94 0.35 92.89 0.35L92.89 0.35ZM109.14 0Q108.99 0 108.99-0.3 108.99-0.6 109.14-0.6L109.14-0.6Q110.49-0.6 111.14-0.88 111.79-1.15 112.04-1.88 112.29-2.6 112.29-4.05L112.29-4.05 112.29-29.9Q112.29-31.7 111.94-32.5 111.59-33.3 110.69-33.3L110.69-33.3Q109.94-33.3 108.39-32.6L108.39-32.6 108.29-32.6Q108.14-32.6 108.06-32.85 107.99-33.1 108.14-33.15L108.14-33.15 114.54-36.2Q114.64-36.25 114.79-36.25L114.79-36.25Q114.94-36.25 115.09-36.13 115.24-36 115.24-35.85L115.24-35.85 115.24-4.05Q115.24-2.6 115.46-1.9 115.69-1.2 116.34-0.9 116.99-0.6 118.34-0.6L118.34-0.6Q118.49-0.6 118.49-0.3 118.49 0 118.34 0L118.34 0Q117.24 0 116.54-0.05L116.54-0.05 113.74-0.1 111.04-0.05Q110.34 0 109.14 0L109.14 0Z" fill="black"></path><path d="M139.79 0.65Q137.69 0.65 135.91-0.55 134.14-1.75 133.06-3.93 131.99-6.1 131.99-8.9L131.99-8.9Q131.99-12.45 133.74-14.95 135.49-17.45 138.14-18.7 140.79-19.95 143.39-19.95L143.39-19.95Q146.84-19.95 149.49-17.7L149.49-17.7 148.94-14.35Q147.59-16.55 145.99-17.75 144.39-18.95 142.04-18.95L142.04-18.95Q138.89-18.95 137.06-16.73 135.24-14.5 135.24-10.4L135.24-10.4Q135.24-7.65 136.09-5.55 136.94-3.45 138.41-2.3 139.89-1.15 141.74-1.15L141.74-1.15Q143.79-1.15 145.49-2.25 147.19-3.35 149.04-5.4L149.04-5.4 149.44-5.05Q147.14-2.45 144.94-0.9 142.74 0.65 139.79 0.65L139.79 0.65ZM150.99-5.5Q150.99-3.7 151.41-2.9 151.84-2.1 152.79-2.1L152.79-2.1Q154.24-2.1 155.39-2.8L155.39-2.8 155.49-2.85Q155.69-2.85 155.76-2.6 155.84-2.35 155.69-2.25L155.69-2.25 150.19 0.35Q149.99 0.45 149.79 0.45L149.79 0.45Q149.14 0.45 148.66-0.75 148.19-1.95 148.19-4.05L148.19-4.05 148.19-29.85Q148.19-31.65 147.81-32.45 147.44-33.25 146.54-33.25L146.54-33.25Q145.89-33.25 144.24-32.55L144.24-32.55 144.14-32.55Q143.94-32.55 143.86-32.77 143.79-33 143.94-33.1L143.94-33.1 150.29-36.2Q150.39-36.25 150.54-36.25L150.54-36.25Q150.69-36.25 150.84-36.13 150.99-36 150.99-35.85L150.99-35.85 150.99-5.5ZM166.74 0.6Q163.83 0.6 161.79-0.75 159.74-2.1 158.66-4.3 157.58-6.5 157.58-9L157.58-9Q157.58-11.95 158.99-14.43 160.39-16.9 162.81-18.32 165.24-19.75 168.14-19.75L168.14-19.75Q170.94-19.75 172.44-18.25 173.94-16.75 173.94-14.05L173.94-14.05Q173.94-13.35 173.81-13.05 173.69-12.75 173.33-12.75L173.33-12.75 170.54-12.75 170.58-13.65Q170.58-16.15 169.49-17.45 168.39-18.75 166.49-18.75L166.49-18.75Q163.83-18.75 162.36-16.65 160.89-14.55 160.89-10.9L160.89-10.9Q160.89-6.55 162.94-3.85 164.99-1.15 168.69-1.15L168.69-1.15Q170.19-1.15 171.26-1.55 172.33-1.95 173.69-2.8L173.69-2.8 173.74-2.8Q173.89-2.8 174.01-2.63 174.14-2.45 174.04-2.3L174.04-2.3Q170.64 0.6 166.74 0.6L166.74 0.6ZM159.99-12.7L159.94-13.35 171.29-13.55 171.29-12.75 159.99-12.7Z" fill="black"></path><path d="M191.783-5.45L191.783-30.1 192.933-30 192.933-5.45Q192.933-2.85 193.853-1.73 194.783-0.6 196.833-0.6L196.833-0.6Q196.983-0.6 196.983-0.3 196.983 0 196.833 0L196.833 0Q195.583 0 194.933-0.05L194.933-0.05 192.433-0.1 189.883-0.05Q189.183 0 187.833 0L187.833 0Q187.733 0 187.733-0.3 187.733-0.6 187.833-0.6L187.833-0.6Q189.983-0.6 190.883-1.73 191.783-2.85 191.783-5.45L191.783-5.45ZM216.983 0.6Q216.983 0.7 216.733 0.75 216.483 0.8 216.383 0.7L216.383 0.7 193.383-27.15Q191.783-29.1 190.453-29.88 189.133-30.65 187.833-30.65L187.833-30.65Q187.683-30.65 187.683-30.95 187.683-31.25 187.833-31.25L187.833-31.25 189.683-31.2Q190.283-31.15 191.333-31.15L191.333-31.15Q192.433-31.15 193.133-31.2 193.833-31.25 194.233-31.25L194.233-31.25Q194.583-31.25 194.803-31.08 195.033-30.9 195.333-30.35L195.333-30.35Q195.933-29.45 196.583-28.65L196.583-28.65 216.583-4.1 216.983 0.6ZM216.983-25.75L216.983 0.6 215.833-0.95 215.833-25.75Q215.833-28.35 214.953-29.5 214.083-30.65 212.033-30.65L212.033-30.65Q211.933-30.65 211.933-30.95 211.933-31.25 212.033-31.25L212.033-31.25 213.983-31.2Q215.483-31.1 216.433-31.1L216.433-31.1Q217.333-31.1 218.933-31.2L218.933-31.2 220.983-31.25Q221.133-31.25 221.133-30.95 221.133-30.65 220.983-30.65L220.983-30.65Q218.883-30.65 217.933-29.5 216.983-28.35 216.983-25.75L216.983-25.75ZM233.673 0.65Q230.783 0.65 228.553-0.78 226.333-2.2 225.133-4.63 223.923-7.05 223.923-9.9L223.923-9.9Q223.923-13.15 225.503-15.43 227.083-17.7 229.553-18.82 232.033-19.95 234.583-19.95L234.583-19.95Q237.533-19.95 239.733-18.5 241.923-17.05 243.103-14.68 244.283-12.3 244.283-9.65L244.283-9.65Q244.283-6.55 242.833-4.23 241.383-1.9 238.953-0.63 236.533 0.65 233.673 0.65L233.673 0.65ZM235.133-0.3Q237.883-0.3 239.383-2.25 240.883-4.2 240.883-8.25L240.883-8.25Q240.883-11.35 239.853-13.8 238.833-16.25 237.033-17.63 235.233-19 232.923-19L232.923-19Q230.233-19 228.753-17.05 227.283-15.1 227.283-11.45L227.283-11.45Q227.283-8.4 228.283-5.85 229.283-3.3 231.083-1.8 232.883-0.3 235.133-0.3L235.133-0.3ZM257.023 0.6Q254.123 0.6 252.073-0.75 250.023-2.1 248.953-4.3 247.873-6.5 247.873-9L247.873-9Q247.873-11.95 249.273-14.43 250.673-16.9 253.103-18.32 255.523-19.75 258.423-19.75L258.423-19.75Q261.223-19.75 262.723-18.25 264.223-16.75 264.223-14.05L264.223-14.05Q264.223-13.35 264.103-13.05 263.973-12.75 263.623-12.75L263.623-12.75 260.823-12.75 260.873-13.65Q260.873-16.15 259.773-17.45 258.673-18.75 256.773-18.75L256.773-18.75Q254.123-18.75 252.653-16.65 251.173-14.55 251.173-10.9L251.173-10.9Q251.173-6.55 253.223-3.85 255.273-1.15 258.973-1.15L258.973-1.15Q260.473-1.15 261.553-1.55 262.623-1.95 263.973-2.8L263.973-2.8 264.023-2.8Q264.173-2.8 264.303-2.63 264.423-2.45 264.323-2.3L264.323-2.3Q260.923 0.6 257.023 0.6L257.023 0.6ZM250.273-12.7L250.223-13.35 261.573-13.55 261.573-12.75 250.273-12.7Z" fill="black"></path></g></svg></g></svg></g></svg></g></svg></g><g transform="matrix(1,0,0,1,150.27345366118772,0)"><svg viewBox="0 0 94.97309267762456 76.38374553073649" height="76.38374553073649" width="94.97309267762456"><g><svg xmlns="http://www.w3.org/2000/svg" xmlns:xlink="http://www.w3.org/1999/xlink" version="1.1" x="0" y="0" viewBox="0 9.786 100.00034525290005 80.42699999999999" enable-background="new 0 0 100 100" xml:space="preserve" id="SvgjsSvg3295" width="94.97309267762456" height="76.38374553073649" class="icon-icon-0" data-fill-palette-color="accent"><path d="M49.942 52.994L90.595 51.529C88.068 47.352 87.436 43.698 82.606 43.068 75.377 42.128 68.148 41.185 60.918 40.242L18.843 34.762C20.101 36.792 39.724 53.361 49.942 52.994" fill="black"></path><path d="M0 9.786C4.391 17.043 26.615 32.858 32.953 33.672 50.283 35.903 67.61 38.132 84.939 40.36 81.546 34.753 80.759 31.01 74.627 29.401L47.91 22.378C31.94 18.182 15.97 13.984 0 9.786" fill="black"></path><path d="M63.108 66.207L94.349 59.547C92.321 56.201 92.315 54.188 88.522 54.358 82.364 54.631 76.208 54.907 70.051 55.18 58.708 55.686 47.365 56.194 36.023 56.698 37.298 58.064 54.94 67.947 63.108 66.207" fill="black"></path><path d="M87.682 90.213C93.407 86.494 94.944 82.492 98.201 76.406 101.852 69.582 99.458 68.562 95.38 61.81 94.963 61.122 89.538 62.042 88.927 62.714 88.182 63.532 88.679 68.169 88.633 69.21z" fill="black"></path><path d="M86.35 63.447C82.555 64.256 77.746 63.638 76.778 67.676L72.658 84.887C81.904 82.678 86.028 71.582 86.35 63.447" fill="black"></path><path d="M74.666 66.121C65.518 68.074 65.71 70.732 61.787 79.301 68.007 78.711 73.811 71.941 74.666 66.121" fill="black"></path></svg></g></svg></g><g></g></svg></g><defs><mask></mask></defs></svg><rect width="395.52" height="144.70220764408717" fill="black" stroke="none" visibility="hidden"></rect></g></mask><mask><g id="SvgjsG3294"><svg viewBox="0 0 395.52 144.70220764408717" height="144.70220764408717" width="395.52"><g><svg viewBox="0 0 395.52 144.70220764408717" height="144.70220764408717" width="395.52"><g transform="matrix(1,0,0,1,0,89.43176948870621)"><svg viewBox="0 0 395.52 55.27043815538096" height="55.27043815538096" width="395.52"><g id="SvgjsG3293"><svg viewBox="0 0 395.52 55.27043815538096" height="55.27043815538096" width="395.52" id="SvgjsSvg3292"><g><svg viewBox="0 0 395.52 55.27043815538096" height="55.27043815538096" width="395.52"><g transform="matrix(1,0,0,1,0,0)"><svg width="395.52" viewBox="2 -36.25 262.36893280568097 37.016666666665" height="55.27043815538096" data-palette-color="url(#bff20f29-7ef3-402d-b927-55590ad42489)"><g class="wordmark-text-0" data-fill-palette-color="primary" id="SvgjsG3291"><path d="M139.79 0.65Q137.69 0.65 135.91-0.55 134.14-1.75 133.06-3.93 131.99-6.1 131.99-8.9L131.99-8.9Q131.99-12.45 133.74-14.95 135.49-17.45 138.14-18.7 140.79-19.95 143.39-19.95L143.39-19.95Q146.84-19.95 149.49-17.7L149.49-17.7 148.94-14.35Q147.59-16.55 145.99-17.75 144.39-18.95 142.04-18.95L142.04-18.95Q138.89-18.95 137.06-16.73 135.24-14.5 135.24-10.4L135.24-10.4Q135.24-7.65 136.09-5.55 136.94-3.45 138.41-2.3 139.89-1.15 141.74-1.15L141.74-1.15Q143.79-1.15 145.49-2.25 147.19-3.35 149.04-5.4L149.04-5.4 149.44-5.05Q147.14-2.45 144.94-0.9 142.74 0.65 139.79 0.65L139.79 0.65ZM150.99-5.5Q150.99-3.7 151.41-2.9 151.84-2.1 152.79-2.1L152.79-2.1Q154.24-2.1 155.39-2.8L155.39-2.8 155.49-2.85Q155.69-2.85 155.76-2.6 155.84-2.35 155.69-2.25L155.69-2.25 150.19 0.35Q149.99 0.45 149.79 0.45L149.79 0.45Q149.14 0.45 148.66-0.75 148.19-1.95 148.19-4.05L148.19-4.05 148.19-29.85Q148.19-31.65 147.81-32.45 147.44-33.25 146.54-33.25L146.54-33.25Q145.89-33.25 144.24-32.55L144.24-32.55 144.14-32.55Q143.94-32.55 143.86-32.77 143.79-33 143.94-33.1L143.94-33.1 150.29-36.2Q150.39-36.25 150.54-36.25L150.54-36.25Q150.69-36.25 150.84-36.13 150.99-36 150.99-35.85L150.99-35.85 150.99-5.5ZM166.74 0.6Q163.83 0.6 161.79-0.75 159.74-2.1 158.66-4.3 157.58-6.5 157.58-9L157.58-9Q157.58-11.95 158.99-14.43 160.39-16.9 162.81-18.32 165.24-19.75 168.14-19.75L168.14-19.75Q170.94-19.75 172.44-18.25 173.94-16.75 173.94-14.05L173.94-14.05Q173.94-13.35 173.81-13.05 173.69-12.75 173.33-12.75L173.33-12.75 170.54-12.75 170.58-13.65Q170.58-16.15 169.49-17.45 168.39-18.75 166.49-18.75L166.49-18.75Q163.83-18.75 162.36-16.65 160.89-14.55 160.89-10.9L160.89-10.9Q160.89-6.55 162.94-3.85 164.99-1.15 168.69-1.15L168.69-1.15Q170.19-1.15 171.26-1.55 172.33-1.95 173.69-2.8L173.69-2.8 173.74-2.8Q173.89-2.8 174.01-2.63 174.14-2.45 174.04-2.3L174.04-2.3Q170.64 0.6 166.74 0.6L166.74 0.6ZM159.99-12.7L159.94-13.35 171.29-13.55 171.29-12.75 159.99-12.7Z" fill="black"></path><path d="M191.783-5.45L191.783-30.1 192.933-30 192.933-5.45Q192.933-2.85 193.853-1.73 194.783-0.6 196.833-0.6L196.833-0.6Q196.983-0.6 196.983-0.3 196.983 0 196.833 0L196.833 0Q195.583 0 194.933-0.05L194.933-0.05 192.433-0.1 189.883-0.05Q189.183 0 187.833 0L187.833 0Q187.733 0 187.733-0.3 187.733-0.6 187.833-0.6L187.833-0.6Q189.983-0.6 190.883-1.73 191.783-2.85 191.783-5.45L191.783-5.45ZM216.983 0.6Q216.983 0.7 216.733 0.75 216.483 0.8 216.383 0.7L216.383 0.7 193.383-27.15Q191.783-29.1 190.453-29.88 189.133-30.65 187.833-30.65L187.833-30.65Q187.683-30.65 187.683-30.95 187.683-31.25 187.833-31.25L187.833-31.25 189.683-31.2Q190.283-31.15 191.333-31.15L191.333-31.15Q192.433-31.15 193.133-31.2 193.833-31.25 194.233-31.25L194.233-31.25Q194.583-31.25 194.803-31.08 195.033-30.9 195.333-30.35L195.333-30.35Q195.933-29.45 196.583-28.65L196.583-28.65 216.583-4.1 216.983 0.6ZM216.983-25.75L216.983 0.6 215.833-0.95 215.833-25.75Q215.833-28.35 214.953-29.5 214.083-30.65 212.033-30.65L212.033-30.65Q211.933-30.65 211.933-30.95 211.933-31.25 212.033-31.25L212.033-31.25 213.983-31.2Q215.483-31.1 216.433-31.1L216.433-31.1Q217.333-31.1 218.933-31.2L218.933-31.2 220.983-31.25Q221.133-31.25 221.133-30.95 221.133-30.65 220.983-30.65L220.983-30.65Q218.883-30.65 217.933-29.5 216.983-28.35 216.983-25.75L216.983-25.75ZM233.673 0.65Q230.783 0.65 228.553-0.78 226.333-2.2 225.133-4.63 223.923-7.05 223.923-9.9L223.923-9.9Q223.923-13.15 225.503-15.43 227.083-17.7 229.553-18.82 232.033-19.95 234.583-19.95L234.583-19.95Q237.533-19.95 239.733-18.5 241.923-17.05 243.103-14.68 244.283-12.3 244.283-9.65L244.283-9.65Q244.283-6.55 242.833-4.23 241.383-1.9 238.953-0.63 236.533 0.65 233.673 0.65L233.673 0.65ZM235.133-0.3Q237.883-0.3 239.383-2.25 240.883-4.2 240.883-8.25L240.883-8.25Q240.883-11.35 239.853-13.8 238.833-16.25 237.033-17.63 235.233-19 232.923-19L232.923-19Q230.233-19 228.753-17.05 227.283-15.1 227.283-11.45L227.283-11.45Q227.283-8.4 228.283-5.85 229.283-3.3 231.083-1.8 232.883-0.3 235.133-0.3L235.133-0.3ZM257.023 0.6Q254.123 0.6 252.073-0.75 250.023-2.1 248.953-4.3 247.873-6.5 247.873-9L247.873-9Q247.873-11.95 249.273-14.43 250.673-16.9 253.103-18.32 255.523-19.75 258.423-19.75L258.423-19.75Q261.223-19.75 262.723-18.25 264.223-16.75 264.223-14.05L264.223-14.05Q264.223-13.35 264.103-13.05 263.973-12.75 263.623-12.75L263.623-12.75 260.823-12.75 260.873-13.65Q260.873-16.15 259.773-17.45 258.673-18.75 256.773-18.75L256.773-18.75Q254.123-18.75 252.653-16.65 251.173-14.55 251.173-10.9L251.173-10.9Q251.173-6.55 253.223-3.85 255.273-1.15 258.973-1.15L258.973-1.15Q260.473-1.15 261.553-1.55 262.623-1.95 263.973-2.8L263.973-2.8 264.023-2.8Q264.173-2.8 264.303-2.63 264.423-2.45 264.323-2.3L264.323-2.3Q260.923 0.6 257.023 0.6L257.023 0.6ZM250.273-12.7L250.223-13.35 261.573-13.55 261.573-12.75 250.273-12.7Z" fill="black"></path></g></svg></g></svg></g></svg></g></svg></g><g transform="matrix(1,0,0,1,150.27345366118772,0)"><svg viewBox="0 0 94.97309267762456 76.38374553073649" height="76.38374553073649" width="94.97309267762456"><g><svg xmlns="http://www.w3.org/2000/svg" xmlns:xlink="http://www.w3.org/1999/xlink" version="1.1" x="0" y="0" viewBox="0 9.786 100.00034525290005 80.42699999999999" enable-background="new 0 0 100 100" xml:space="preserve" id="SvgjsSvg3290" width="94.97309267762456" height="76.38374553073649" class="icon-icon-0" data-fill-palette-color="accent"><path d="M49.942 52.994L90.595 51.529C88.068 47.352 87.436 43.698 82.606 43.068 75.377 42.128 68.148 41.185 60.918 40.242L18.843 34.762C20.101 36.792 39.724 53.361 49.942 52.994" fill="black"></path><path d="M0 9.786C4.391 17.043 26.615 32.858 32.953 33.672 50.283 35.903 67.61 38.132 84.939 40.36 81.546 34.753 80.759 31.01 74.627 29.401L47.91 22.378C31.94 18.182 15.97 13.984 0 9.786" fill="black"></path><path d="M63.108 66.207L94.349 59.547C92.321 56.201 92.315 54.188 88.522 54.358 82.364 54.631 76.208 54.907 70.051 55.18 58.708 55.686 47.365 56.194 36.023 56.698 37.298 58.064 54.94 67.947 63.108 66.207" fill="black"></path><path d="M87.682 90.213C93.407 86.494 94.944 82.492 98.201 76.406 101.852 69.582 99.458 68.562 95.38 61.81 94.963 61.122 89.538 62.042 88.927 62.714 88.182 63.532 88.679 68.169 88.633 69.21z" fill="black"></path><path d="M86.35 63.447C82.555 64.256 77.746 63.638 76.778 67.676L72.658 84.887C81.904 82.678 86.028 71.582 86.35 63.447" fill="black"></path><path d="M74.666 66.121C65.518 68.074 65.71 70.732 61.787 79.301 68.007 78.711 73.811 71.941 74.666 66.121" fill="black"></path></svg></g></svg></g><g></g></svg></g><defs><mask></mask></defs><mask><g id="SvgjsG3289"><svg viewBox="0 0 395.52 144.70220764408717" height="144.70220764408717" width="395.52"><g><svg viewBox="0 0 395.52 144.70220764408717" height="144.70220764408717" width="395.52"><g transform="matrix(1,0,0,1,0,89.43176948870621)"><svg viewBox="0 0 395.52 55.27043815538096" height="55.27043815538096" width="395.52"><g id="SvgjsG3288"><svg viewBox="0 0 395.52 55.27043815538096" height="55.27043815538096" width="395.52" id="SvgjsSvg3287"><g><svg viewBox="0 0 395.52 55.27043815538096" height="55.27043815538096" width="395.52"><g transform="matrix(1,0,0,1,0,0)"><svg width="395.52" viewBox="2 -36.25 262.36893280568097 37.016666666665" height="55.27043815538096" data-palette-color="url(#bff20f29-7ef3-402d-b927-55590ad42489)"><g class="wordmark-text-0" data-fill-palette-color="primary" id="SvgjsG3286"><path d="M9.6-4.25Q9.6-2.65 10.03-1.93 10.45-1.2 11.68-0.9 12.9-0.6 15.55-0.6L15.55-0.6Q15.7-0.6 15.7-0.3 15.7 0 15.55 0L15.55 0Q13.5 0 12.35-0.05L12.35-0.05 8-0.1 4.65-0.05Q3.7 0 2.1 0L2.1 0Q2 0 2-0.3 2-0.6 2.1-0.6L2.1-0.6Q4-0.6 4.88-0.85 5.75-1.1 6.05-1.83 6.35-2.55 6.35-4.05L6.35-4.05 6.35-27.2Q6.35-28.7 6.05-29.4 5.75-30.1 4.88-30.38 4-30.65 2.1-30.65L2.1-30.65Q2-30.65 2-30.95 2-31.25 2.1-31.25L2.1-31.25 4.6-31.2Q6.7-31.1 7.95-31.1L7.95-31.1Q9.2-31.1 10.75-31.25L10.75-31.25Q11.35-31.25 12.65-31.33 13.95-31.4 14.9-31.4L14.9-31.4Q19.5-31.4 22.28-29.35 25.05-27.3 25.05-23.1L25.05-23.1Q25.05-19.8 23.43-17.55 21.8-15.3 19.25-14.2 16.7-13.1 14-13.1L14-13.1Q12.55-13.1 11.6-13.35L11.6-13.35Q11.45-13.35 11.45-13.6L11.45-13.6Q11.45-13.75 11.53-13.9 11.6-14.05 11.7-14L11.7-14Q12.5-13.8 13.5-13.8L13.5-13.8Q16.8-13.8 19.07-15.95 21.35-18.1 21.35-22.15L21.35-22.15Q21.35-26.1 19.2-28.38 17.05-30.65 13.7-30.65L13.7-30.65Q11.9-30.65 11.1-30.45 10.3-30.25 9.95-29.53 9.6-28.8 9.6-27.1L9.6-27.1 9.6-4.25ZM38.7 0.65Q35.8 0.65 33.57-0.78 31.35-2.2 30.15-4.63 28.95-7.05 28.95-9.9L28.95-9.9Q28.95-13.15 30.52-15.43 32.1-17.7 34.57-18.82 37.05-19.95 39.6-19.95L39.6-19.95Q42.55-19.95 44.75-18.5 46.95-17.05 48.12-14.68 49.3-12.3 49.3-9.65L49.3-9.65Q49.3-6.55 47.85-4.23 46.4-1.9 43.97-0.63 41.55 0.65 38.7 0.65L38.7 0.65ZM40.15-0.3Q42.9-0.3 44.4-2.25 45.9-4.2 45.9-8.25L45.9-8.25Q45.9-11.35 44.87-13.8 43.85-16.25 42.05-17.63 40.25-19 37.95-19L37.95-19Q35.25-19 33.77-17.05 32.3-15.1 32.3-11.45L32.3-11.45Q32.3-8.4 33.3-5.85 34.3-3.3 36.1-1.8 37.9-0.3 40.15-0.3L40.15-0.3ZM58.05-14.1Q60.7-17.4 62.15-18.57 63.6-19.75 64.84-19.75L64.84-19.75Q65.95-19.75 66.95-19.15 67.95-18.55 67.95-17.7L67.95-17.7Q67.95-17.05 67.5-16.6 67.05-16.15 66.3-16.15L66.3-16.15Q65.84-16.15 65.52-16.32 65.2-16.5 64.75-16.85L64.75-16.85Q64.3-17.25 63.9-17.45 63.5-17.65 62.95-17.65L62.95-17.65Q62.2-17.65 61.3-16.9 60.4-16.15 58.25-13.55L58.25-13.55 58.05-14.1ZM53.35 0Q53.2 0 53.2-0.3 53.2-0.6 53.35-0.6L53.35-0.6Q54.7-0.6 55.35-0.88 56-1.15 56.22-1.85 56.45-2.55 56.45-4.05L56.45-4.05 56.45-13.95Q56.45-15.65 56.05-16.4 55.65-17.15 54.7-17.15L54.7-17.15Q53.9-17.15 52-16.4L52-16.4 51.9-16.4Q51.7-16.4 51.62-16.63 51.55-16.85 51.75-16.95L51.75-16.95 57.55-19.7Q57.65-19.75 57.85-19.75L57.85-19.75Q58.3-19.75 58.8-18.6 59.3-17.45 59.3-15.65L59.3-15.65 59.3-4.05Q59.3-2.55 59.67-1.85 60.05-1.15 61.05-0.88 62.05-0.6 64.15-0.6L64.15-0.6Q64.34-0.6 64.34-0.3 64.34 0 64.15 0L64.15 0Q62.55 0 61.6-0.05L61.6-0.05 57.9-0.1 55.15-0.05Q54.5 0 53.35 0L53.35 0ZM78.69 0.6Q76.59 0.6 75.24-0.35 73.89-1.3 73.89-3.5L73.89-3.5 73.89-15.25Q73.89-16.55 73.72-17.1 73.54-17.65 73.04-17.82 72.54-18 71.34-18L71.34-18Q71.14-18 71.14-18.32 71.14-18.65 71.34-18.65L71.34-18.65Q73.34-18.7 74.59-19.73 75.84-20.75 76.04-22.45L76.04-22.45Q76.04-22.6 76.44-22.6L76.44-22.6Q76.79-22.6 76.79-22.45L76.79-22.45 76.79-5.2Q76.79-1.15 80.74-1.15L80.74-1.15Q83.04-1.15 84.74-2.55L84.74-2.55 84.84-2.6Q85.04-2.6 85.14-2.38 85.24-2.15 85.09-2.05L85.09-2.05Q83.24-0.6 81.77 0 80.29 0.6 78.69 0.6L78.69 0.6ZM83.54-16.85Q80.34-17.65 75.94-17.65L75.94-17.65 75.94-18.75Q79.09-18.75 83.74-19.25L83.74-19.25Q83.84-19.25 83.97-18.88 84.09-18.5 84.09-18.05L84.09-18.05Q84.09-17.65 83.92-17.23 83.74-16.8 83.54-16.85L83.54-16.85ZM101.89 0.3Q101.69 0.4 101.49 0.4L101.49 0.4Q100.74 0.4 100.19-0.75 99.64-1.9 99.64-3.8L99.64-3.8 99.64-13.25Q99.64-18.85 96.49-18.85L96.49-18.85Q94.79-18.85 93.92-17.73 93.04-16.6 92.74-15.15L92.74-15.15Q92.54-14.2 92.17-13.65 91.79-13.1 90.84-13.1L90.84-13.1Q90.04-13.1 89.62-13.55 89.19-14 89.19-14.6L89.19-14.6Q89.19-15.8 90.74-17 92.29-18.2 94.44-19 96.59-19.8 98.29-19.8L98.29-19.8Q100.34-19.8 101.39-18.5 102.44-17.2 102.44-14.75L102.44-14.75 102.44-5.4Q102.44-3.65 102.89-2.85 103.34-2.05 104.34-2.05L104.34-2.05Q105.34-2.05 106.84-2.7L106.84-2.7 106.94-2.7Q107.14-2.7 107.19-2.48 107.24-2.25 107.04-2.15L107.04-2.15 101.89 0.3ZM92.89 0.35Q91.04 0.35 90.02-0.63 88.99-1.6 88.99-3.1L88.99-3.1Q88.99-4.6 90.19-5.7 91.39-6.8 94.14-7.8L94.14-7.8 100.14-10.05 100.29-9.4 94.99-7.35Q93.59-6.8 92.97-6.08 92.34-5.35 92.34-4.35L92.34-4.35Q92.34-3.15 93.12-2.33 93.89-1.5 95.14-1.5L95.14-1.5Q96.14-1.5 97.54-2.3L97.54-2.3 100.69-4.2 100.79-3.55 97.09-1.15Q95.84-0.35 94.89 0 93.94 0.35 92.89 0.35L92.89 0.35ZM109.14 0Q108.99 0 108.99-0.3 108.99-0.6 109.14-0.6L109.14-0.6Q110.49-0.6 111.14-0.88 111.79-1.15 112.04-1.88 112.29-2.6 112.29-4.05L112.29-4.05 112.29-29.9Q112.29-31.7 111.94-32.5 111.59-33.3 110.69-33.3L110.69-33.3Q109.94-33.3 108.39-32.6L108.39-32.6 108.29-32.6Q108.14-32.6 108.06-32.85 107.99-33.1 108.14-33.15L108.14-33.15 114.54-36.2Q114.64-36.25 114.79-36.25L114.79-36.25Q114.94-36.25 115.09-36.13 115.24-36 115.24-35.85L115.24-35.85 115.24-4.05Q115.24-2.6 115.46-1.9 115.69-1.2 116.34-0.9 116.99-0.6 118.34-0.6L118.34-0.6Q118.49-0.6 118.49-0.3 118.49 0 118.34 0L118.34 0Q117.24 0 116.54-0.05L116.54-0.05 113.74-0.1 111.04-0.05Q110.34 0 109.14 0L109.14 0Z" fill="black"></path><path d="M139.79 0.65Q137.69 0.65 135.91-0.55 134.14-1.75 133.06-3.93 131.99-6.1 131.99-8.9L131.99-8.9Q131.99-12.45 133.74-14.95 135.49-17.45 138.14-18.7 140.79-19.95 143.39-19.95L143.39-19.95Q146.84-19.95 149.49-17.7L149.49-17.7 148.94-14.35Q147.59-16.55 145.99-17.75 144.39-18.95 142.04-18.95L142.04-18.95Q138.89-18.95 137.06-16.73 135.24-14.5 135.24-10.4L135.24-10.4Q135.24-7.65 136.09-5.55 136.94-3.45 138.41-2.3 139.89-1.15 141.74-1.15L141.74-1.15Q143.79-1.15 145.49-2.25 147.19-3.35 149.04-5.4L149.04-5.4 149.44-5.05Q147.14-2.45 144.94-0.9 142.74 0.65 139.79 0.65L139.79 0.65ZM150.99-5.5Q150.99-3.7 151.41-2.9 151.84-2.1 152.79-2.1L152.79-2.1Q154.24-2.1 155.39-2.8L155.39-2.8 155.49-2.85Q155.69-2.85 155.76-2.6 155.84-2.35 155.69-2.25L155.69-2.25 150.19 0.35Q149.99 0.45 149.79 0.45L149.79 0.45Q149.14 0.45 148.66-0.75 148.19-1.95 148.19-4.05L148.19-4.05 148.19-29.85Q148.19-31.65 147.81-32.45 147.44-33.25 146.54-33.25L146.54-33.25Q145.89-33.25 144.24-32.55L144.24-32.55 144.14-32.55Q143.94-32.55 143.86-32.77 143.79-33 143.94-33.1L143.94-33.1 150.29-36.2Q150.39-36.25 150.54-36.25L150.54-36.25Q150.69-36.25 150.84-36.13 150.99-36 150.99-35.85L150.99-35.85 150.99-5.5ZM166.74 0.6Q163.83 0.6 161.79-0.75 159.74-2.1 158.66-4.3 157.58-6.5 157.58-9L157.58-9Q157.58-11.95 158.99-14.43 160.39-16.9 162.81-18.32 165.24-19.75 168.14-19.75L168.14-19.75Q170.94-19.75 172.44-18.25 173.94-16.75 173.94-14.05L173.94-14.05Q173.94-13.35 173.81-13.05 173.69-12.75 173.33-12.75L173.33-12.75 170.54-12.75 170.58-13.65Q170.58-16.15 169.49-17.45 168.39-18.75 166.49-18.75L166.49-18.75Q163.83-18.75 162.36-16.65 160.89-14.55 160.89-10.9L160.89-10.9Q160.89-6.55 162.94-3.85 164.99-1.15 168.69-1.15L168.69-1.15Q170.19-1.15 171.26-1.55 172.33-1.95 173.69-2.8L173.69-2.8 173.74-2.8Q173.89-2.8 174.01-2.63 174.14-2.45 174.04-2.3L174.04-2.3Q170.64 0.6 166.74 0.6L166.74 0.6ZM159.99-12.7L159.94-13.35 171.29-13.55 171.29-12.75 159.99-12.7Z" fill="black"></path><path d="M191.783-5.45L191.783-30.1 192.933-30 192.933-5.45Q192.933-2.85 193.853-1.73 194.783-0.6 196.833-0.6L196.833-0.6Q196.983-0.6 196.983-0.3 196.983 0 196.833 0L196.833 0Q195.583 0 194.933-0.05L194.933-0.05 192.433-0.1 189.883-0.05Q189.183 0 187.833 0L187.833 0Q187.733 0 187.733-0.3 187.733-0.6 187.833-0.6L187.833-0.6Q189.983-0.6 190.883-1.73 191.783-2.85 191.783-5.45L191.783-5.45ZM216.983 0.6Q216.983 0.7 216.733 0.75 216.483 0.8 216.383 0.7L216.383 0.7 193.383-27.15Q191.783-29.1 190.453-29.88 189.133-30.65 187.833-30.65L187.833-30.65Q187.683-30.65 187.683-30.95 187.683-31.25 187.833-31.25L187.833-31.25 189.683-31.2Q190.283-31.15 191.333-31.15L191.333-31.15Q192.433-31.15 193.133-31.2 193.833-31.25 194.233-31.25L194.233-31.25Q194.583-31.25 194.803-31.08 195.033-30.9 195.333-30.35L195.333-30.35Q195.933-29.45 196.583-28.65L196.583-28.65 216.583-4.1 216.983 0.6ZM216.983-25.75L216.983 0.6 215.833-0.95 215.833-25.75Q215.833-28.35 214.953-29.5 214.083-30.65 212.033-30.65L212.033-30.65Q211.933-30.65 211.933-30.95 211.933-31.25 212.033-31.25L212.033-31.25 213.983-31.2Q215.483-31.1 216.433-31.1L216.433-31.1Q217.333-31.1 218.933-31.2L218.933-31.2 220.983-31.25Q221.133-31.25 221.133-30.95 221.133-30.65 220.983-30.65L220.983-30.65Q218.883-30.65 217.933-29.5 216.983-28.35 216.983-25.75L216.983-25.75ZM233.673 0.65Q230.783 0.65 228.553-0.78 226.333-2.2 225.133-4.63 223.923-7.05 223.923-9.9L223.923-9.9Q223.923-13.15 225.503-15.43 227.083-17.7 229.553-18.82 232.033-19.95 234.583-19.95L234.583-19.95Q237.533-19.95 239.733-18.5 241.923-17.05 243.103-14.68 244.283-12.3 244.283-9.65L244.283-9.65Q244.283-6.55 242.833-4.23 241.383-1.9 238.953-0.63 236.533 0.65 233.673 0.65L233.673 0.65ZM235.133-0.3Q237.883-0.3 239.383-2.25 240.883-4.2 240.883-8.25L240.883-8.25Q240.883-11.35 239.853-13.8 238.833-16.25 237.033-17.63 235.233-19 232.923-19L232.923-19Q230.233-19 228.753-17.05 227.283-15.1 227.283-11.45L227.283-11.45Q227.283-8.4 228.283-5.85 229.283-3.3 231.083-1.8 232.883-0.3 235.133-0.3L235.133-0.3ZM257.023 0.6Q254.123 0.6 252.073-0.75 250.023-2.1 248.953-4.3 247.873-6.5 247.873-9L247.873-9Q247.873-11.95 249.273-14.43 250.673-16.9 253.103-18.32 255.523-19.75 258.423-19.75L258.423-19.75Q261.223-19.75 262.723-18.25 264.223-16.75 264.223-14.05L264.223-14.05Q264.223-13.35 264.103-13.05 263.973-12.75 263.623-12.75L263.623-12.75 260.823-12.75 260.873-13.65Q260.873-16.15 259.773-17.45 258.673-18.75 256.773-18.75L256.773-18.75Q254.123-18.75 252.653-16.65 251.173-14.55 251.173-10.9L251.173-10.9Q251.173-6.55 253.223-3.85 255.273-1.15 258.973-1.15L258.973-1.15Q260.473-1.15 261.553-1.55 262.623-1.95 263.973-2.8L263.973-2.8 264.023-2.8Q264.173-2.8 264.303-2.63 264.423-2.45 264.323-2.3L264.323-2.3Q260.923 0.6 257.023 0.6L257.023 0.6ZM250.273-12.7L250.223-13.35 261.573-13.55 261.573-12.75 250.273-12.7Z" fill="black"></path></g></svg></g></svg></g></svg></g></svg></g><g transform="matrix(1,0,0,1,150.27345366118772,0)"><svg viewBox="0 0 94.97309267762456 76.38374553073649" height="76.38374553073649" width="94.97309267762456"><g><svg xmlns="http://www.w3.org/2000/svg" xmlns:xlink="http://www.w3.org/1999/xlink" version="1.1" x="0" y="0" viewBox="0 9.786 100.00034525290005 80.42699999999999" enable-background="new 0 0 100 100" xml:space="preserve" id="SvgjsSvg3285" width="94.97309267762456" height="76.38374553073649" class="icon-icon-0" data-fill-palette-color="accent"><path d="M49.942 52.994L90.595 51.529C88.068 47.352 87.436 43.698 82.606 43.068 75.377 42.128 68.148 41.185 60.918 40.242L18.843 34.762C20.101 36.792 39.724 53.361 49.942 52.994" fill="black"></path><path d="M0 9.786C4.391 17.043 26.615 32.858 32.953 33.672 50.283 35.903 67.61 38.132 84.939 40.36 81.546 34.753 80.759 31.01 74.627 29.401L47.91 22.378C31.94 18.182 15.97 13.984 0 9.786" fill="black"></path><path d="M63.108 66.207L94.349 59.547C92.321 56.201 92.315 54.188 88.522 54.358 82.364 54.631 76.208 54.907 70.051 55.18 58.708 55.686 47.365 56.194 36.023 56.698 37.298 58.064 54.94 67.947 63.108 66.207" fill="black"></path><path d="M87.682 90.213C93.407 86.494 94.944 82.492 98.201 76.406 101.852 69.582 99.458 68.562 95.38 61.81 94.963 61.122 89.538 62.042 88.927 62.714 88.182 63.532 88.679 68.169 88.633 69.21z" fill="black"></path><path d="M86.35 63.447C82.555 64.256 77.746 63.638 76.778 67.676L72.658 84.887C81.904 82.678 86.028 71.582 86.35 63.447" fill="black"></path><path d="M74.666 66.121C65.518 68.074 65.71 70.732 61.787 79.301 68.007 78.711 73.811 71.941 74.666 66.121" fill="black"></path></svg></g></svg></g><g></g></svg></g><defs><mask></mask></defs></svg><rect width="395.52" height="144.70220764408717" fill="black" stroke="none" visibility="hidden"></rect></g></mask></svg><rect width="395.52" height="144.70220764408717" fill="black" stroke="none" visibility="hidden"></rect></g></mask></svg><rect width="395.52" height="144.70220764408717" fill="black" stroke="none" visibility="hidden"></rect></g></mask><linearGradient x1="0.054" x2="0.941" y1="0.5" y2="0.5" id="4f6aa480-6779-4822-9463-b0223d9f583f"><stop stop-color="#26282a" offset="0"></stop><stop stop-color="#9e9fa0" offset="0.498"></stop><stop stop-color="#26282a" offset="1"></stop></linearGradient><rect width="395.52" height="144.70220764408717" fill="url(#4f6aa480-6779-4822-9463-b0223d9f583f)" mask="url(#f1afcca2-1c2d-4f8a-9ab3-c59c6d6479a7)" data-fill-palette-color="accent"></rect></svg><rect width="395.52" height="144.70220764408717" fill="none" stroke="none" visibility="hidden"></rect></g></svg></g></svg>